<svg width="66" height="44" viewBox="0 0 66 44" fill="none" xmlns="http://www.w3.org/2000/svg">
<path d="M21.6875 17.7877H12.0648C10.9588 17.7884 9.89564 17.3601 9.09913 16.5928C8.30262 15.8255 7.83486 14.7791 7.7943 13.6738V13.3891C7.7943 6.27171 11.8512 0.364258 16.8334 0.364258C21.8156 0.364258 25.8868 6.21477 25.8868 13.3891V13.6738C25.8468 14.7669 25.389 15.8029 24.6077 16.5683C23.8264 17.3338 22.7811 17.7702 21.6875 17.7877V17.7877ZM16.8761 2.44253C13.0327 2.44253 9.91529 7.35356 9.91529 13.3891V13.6453C9.93383 14.2017 10.1689 14.7288 10.5704 15.1144C10.9719 15.4999 11.5081 15.7134 12.0648 15.7094H21.6875C22.2455 15.7135 22.7833 15.5005 23.1871 15.1153C23.5909 14.7301 23.829 14.203 23.8512 13.6453V13.3891C23.8512 7.35356 20.748 2.44253 16.8761 2.44253Z" fill="#38BCEA"/>
<path d="M18.5133 13.5885H15.2535C14.7388 13.5886 14.2449 13.385 13.8796 13.0224C13.5142 12.6597 13.3071 12.1673 13.3034 11.6526V8.39279C13.3071 7.87673 13.5137 7.38289 13.8787 7.01796C14.2436 6.65304 14.7375 6.44635 15.2535 6.44263H18.5133C19.0281 6.44638 19.5204 6.65351 19.8831 7.01883C20.2458 7.38415 20.4493 7.87803 20.4492 8.39279V11.6526C20.4492 12.166 20.2453 12.6584 19.8822 13.0215C19.5192 13.3846 19.0268 13.5885 18.5133 13.5885ZM15.3816 11.5102H18.371V8.52094H15.3816V11.5102Z" fill="#38BCEA"/>
<path d="M16.876 8.52078C16.6004 8.52078 16.3361 8.41126 16.1412 8.21638C15.9463 8.02151 15.8368 7.75722 15.8368 7.48162V6.30015C15.8368 6.02455 15.9463 5.76021 16.1412 5.56534C16.3361 5.37046 16.6004 5.26099 16.876 5.26099C17.1516 5.26099 17.4159 5.37046 17.6108 5.56534C17.8057 5.76021 17.9151 6.02455 17.9151 6.30015V7.52432C17.9041 7.79245 17.7898 8.0459 17.5961 8.23163C17.4024 8.41737 17.1443 8.521 16.876 8.52078Z" fill="#38BCEA"/>
<path d="M16.876 14.3428C16.6004 14.3428 16.3361 14.2333 16.1412 14.0384C15.9463 13.8435 15.8368 13.5792 15.8368 13.3036V12.5492C15.8368 12.2736 15.9463 12.0093 16.1412 11.8144C16.3361 11.6195 16.6004 11.51 16.876 11.51C17.1516 11.51 17.4159 11.6195 17.6108 11.8144C17.8057 12.0093 17.9151 12.2736 17.9151 12.5492V13.3036C17.9151 13.5792 17.8057 13.8435 17.6108 14.0384C17.4159 14.2333 17.1516 14.3428 16.876 14.3428V14.3428Z" fill="#38BCEA"/>
<path d="M37.7017 17.7877H28.079C26.973 17.7884 25.9098 17.3601 25.1133 16.5928C24.3168 15.8255 23.8491 14.7791 23.8085 13.6738V13.3891C23.8085 6.27171 27.8654 0.364258 32.8476 0.364258C37.8298 0.364258 41.901 6.21477 41.901 13.3891V13.688C41.8575 14.7786 41.3981 15.8111 40.6171 16.5735C39.8362 17.3359 38.793 17.7704 37.7017 17.7877V17.7877ZM32.8903 2.44253C29.0469 2.44253 25.9295 7.35356 25.9295 13.3891V13.6453C25.948 14.2017 26.1831 14.7288 26.5846 15.1144C26.9861 15.4999 27.5223 15.7134 28.079 15.7094H37.7017C38.2597 15.7135 38.7975 15.5005 39.2013 15.1153C39.6051 14.7301 39.8432 14.203 39.8654 13.6453V13.3891C39.8654 7.35356 36.7337 2.44253 32.8903 2.44253Z" fill="#38BCEA"/>
<path d="M34.5275 13.5885H31.2677C31.0099 13.5942 30.7536 13.5484 30.5137 13.4536C30.2739 13.3589 30.0554 13.2172 29.8711 13.0368C29.6868 12.8565 29.5403 12.6411 29.4404 12.4034C29.3404 12.1657 29.289 11.9104 29.289 11.6526V8.39279C29.289 7.87803 29.4925 7.38415 29.8552 7.01883C30.2179 6.65351 30.7102 6.44638 31.225 6.44263H34.4848C34.997 6.45011 35.4858 6.65886 35.8454 7.02378C36.205 7.38871 36.4065 7.88047 36.4065 8.39279V11.6526C36.4067 12.1563 36.2106 12.6403 35.8597 13.0018C35.5089 13.3632 35.031 13.5737 34.5275 13.5885V13.5885ZM31.3958 11.5102H34.3851V8.52094H31.3958V11.5102Z" fill="#38BCEA"/>
<path d="M32.8902 8.52078C32.6146 8.52078 32.3503 8.41126 32.1554 8.21638C31.9605 8.02151 31.851 7.75722 31.851 7.48162V6.30015C31.851 6.02455 31.9605 5.76021 32.1554 5.56534C32.3503 5.37046 32.6146 5.26099 32.8902 5.26099C33.1658 5.26099 33.4301 5.37046 33.625 5.56534C33.8198 5.76021 33.9293 6.02455 33.9293 6.30015V7.52432C33.9183 7.79245 33.804 8.0459 33.6103 8.23163C33.4166 8.41737 33.1585 8.521 32.8902 8.52078V8.52078Z" fill="#38BCEA"/>
<path d="M32.8902 14.3428C32.6146 14.3428 32.3503 14.2333 32.1554 14.0384C31.9605 13.8435 31.851 13.5792 31.851 13.3036V12.5492C31.851 12.2736 31.9605 12.0093 32.1554 11.8144C32.3503 11.6195 32.6146 11.51 32.8902 11.51C33.1658 11.51 33.4301 11.6195 33.625 11.8144C33.8198 12.0093 33.9293 12.2736 33.9293 12.5492V13.3036C33.9293 13.5792 33.8198 13.8435 33.625 14.0384C33.4301 14.2333 33.1658 14.3428 32.8902 14.3428Z" fill="#38BCEA"/>
<path d="M53.7159 17.7877H44.0931C42.9872 17.7884 41.924 17.3601 41.1275 16.5928C40.331 15.8255 39.8632 14.7791 39.8227 13.6738V13.3891C39.8227 6.27171 43.8796 0.364258 48.8618 0.364258C53.844 0.364258 57.9152 6.21477 57.9152 13.3891V13.688C57.8717 14.7786 57.4123 15.8111 56.6313 16.5735C55.8504 17.3359 54.8072 17.7704 53.7159 17.7877V17.7877ZM48.9045 2.44253C45.0611 2.44253 41.9437 7.35356 41.9437 13.3891V13.6453C41.9622 14.2017 42.1973 14.7288 42.5988 15.1144C43.0003 15.4999 43.5365 15.7134 44.0931 15.7094H53.7159C54.2739 15.7135 54.8117 15.5005 55.2155 15.1153C55.6193 14.7301 55.8574 14.203 55.8796 13.6453V13.3891C55.8796 7.35356 52.7479 2.44253 48.9045 2.44253Z" fill="#38BCEA"/>
<path d="M50.5414 13.5885H47.2816C46.7681 13.5885 46.2757 13.3846 45.9127 13.0215C45.5496 12.6584 45.3456 12.166 45.3456 11.6526V8.39279C45.3456 7.87803 45.5491 7.38415 45.9118 7.01883C46.2744 6.65351 46.7668 6.44638 47.2816 6.44263H50.5414C51.0561 6.44638 51.5485 6.65351 51.9112 7.01883C52.2738 7.38415 52.4773 7.87803 52.4773 8.39279V11.6526C52.4773 12.166 52.2733 12.6584 51.9103 13.0215C51.5472 13.3846 51.0548 13.5885 50.5414 13.5885ZM47.4097 11.5102H50.399V8.52094H47.4097V11.5102Z" fill="#38BCEA"/>
<path d="M48.9044 8.52078C48.6288 8.52078 48.3645 8.41126 48.1696 8.21638C47.9747 8.02151 47.8652 7.75722 47.8652 7.48162V6.30015C47.8652 6.02455 47.9747 5.76021 48.1696 5.56534C48.3645 5.37046 48.6288 5.26099 48.9044 5.26099C49.18 5.26099 49.4443 5.37046 49.6392 5.56534C49.834 5.76021 49.9435 6.02455 49.9435 6.30015V7.52432C49.9325 7.79245 49.8182 8.0459 49.6245 8.23163C49.4308 8.41737 49.1727 8.521 48.9044 8.52078V8.52078Z" fill="#38BCEA"/>
<path d="M48.9044 14.3428C48.6288 14.3428 48.3645 14.2333 48.1696 14.0384C47.9747 13.8435 47.8652 13.5792 47.8652 13.3036V12.5492C47.8652 12.2736 47.9747 12.0093 48.1696 11.8144C48.3645 11.6195 48.6288 11.51 48.9044 11.51C49.18 11.51 49.4443 11.6195 49.6392 11.8144C49.834 12.0093 49.9435 12.2736 49.9435 12.5492V13.3036C49.9435 13.5792 49.834 13.8435 49.6392 14.0384C49.4443 14.2333 49.18 14.3428 48.9044 14.3428V14.3428Z" fill="#38BCEA"/>
<path d="M35.4242 11.0405C35.153 11.0366 34.8934 10.9298 34.6982 10.7415C34.5001 10.5459 34.3875 10.2797 34.385 10.0013V8.57782H31.3957V10.0013C31.3913 10.2766 31.2847 10.5404 31.0968 10.7415C30.9985 10.8408 30.8807 10.9186 30.7509 10.97C30.621 11.0215 30.4819 11.0455 30.3423 11.0405C26.4989 11.0405 22.7836 10.8269 19.3246 10.5565C19.064 10.535 18.8212 10.4161 18.6444 10.2235C18.4676 10.0309 18.3699 9.77874 18.3708 9.51732V8.52091H15.3815V9.01909C15.3847 9.16637 15.3561 9.31263 15.2977 9.44786C15.2393 9.58309 15.1524 9.70415 15.043 9.80277C14.9336 9.90139 14.8042 9.97524 14.6636 10.0193C14.523 10.0634 14.3746 10.0767 14.2285 10.0583C0.705383 8.42125 0.705383 5.9017 0.705383 4.9622C0.735128 4.70937 0.85665 4.47623 1.04689 4.30706C1.23712 4.13789 1.48283 4.04446 1.73741 4.04446C1.99198 4.04446 2.2377 4.13789 2.42794 4.30706C2.61818 4.47623 2.7397 4.70937 2.76944 4.9622C3.01143 5.44618 5.34595 6.84119 13.3886 7.89457C13.5008 7.48591 13.744 7.12533 14.0808 6.86819C14.4177 6.61105 14.8296 6.47155 15.2534 6.47109H18.5132C19.0279 6.47485 19.5203 6.68197 19.883 7.04729C20.2456 7.41262 20.4491 7.90649 20.4491 8.42125V8.59207C23.2961 8.79135 26.2427 8.91945 29.3316 8.97639V8.42125C29.3316 7.90649 29.5351 7.41262 29.8978 7.04729C30.2605 6.68197 30.7528 6.47485 31.2676 6.47109H34.5274C35.0273 6.4893 35.5011 6.69888 35.8508 7.05655C36.2005 7.41421 36.3994 7.89258 36.4064 8.39276V8.94794C39.4811 8.94794 42.4704 8.7629 45.2889 8.56361V8.39276C45.2889 7.878 45.4924 7.38412 45.855 7.0188C46.2177 6.65347 46.7101 6.44635 47.2248 6.44259H50.4846C50.9078 6.4454 51.3186 6.58581 51.655 6.8426C51.9914 7.09938 52.2351 7.4586 52.3494 7.86608C60.4775 6.79846 62.7693 5.38925 62.9686 4.9195C62.9686 4.78557 62.9952 4.65295 63.0469 4.52939C63.0985 4.40584 63.1742 4.2938 63.2696 4.19976C63.365 4.10572 63.4781 4.03155 63.6023 3.9816C63.7266 3.93165 63.8596 3.90691 63.9935 3.90879C64.1318 3.91065 64.2684 3.93975 64.3955 3.99441C64.5226 4.04907 64.6377 4.12825 64.7342 4.22739C64.8307 4.32653 64.9067 4.4437 64.9579 4.57223C65.0091 4.70075 65.0345 4.83807 65.0326 4.9764C65.0326 5.9159 65.0326 8.4355 51.5095 10.0725C51.3631 10.0884 51.215 10.0735 51.0748 10.0286C50.9345 9.98377 50.8052 9.90999 50.6952 9.81207C50.5852 9.71415 50.497 9.59424 50.4362 9.46011C50.3754 9.32598 50.3434 9.1806 50.3423 9.03334V8.53511H47.353V9.53157C47.3538 9.79299 47.2562 10.0451 47.0794 10.2377C46.9026 10.4303 46.6598 10.5492 46.3992 10.5707C42.9402 10.8412 39.2818 10.9978 35.3815 11.0547L35.4242 11.0405Z" fill="#38BCEA"/>
<path d="M16.8758 43.1114C11.8936 43.1114 7.8367 37.2609 7.8367 30.0865V29.8018C7.87725 28.6966 8.34501 27.6502 9.14152 26.8829C9.93804 26.1156 11.0012 25.6872 12.1072 25.688H21.7299C22.8335 25.6871 23.8946 26.1135 24.6907 26.8778C25.4869 27.642 25.9562 28.6849 26.0004 29.7876V30.0865C25.9292 37.2609 21.8723 43.1114 16.8758 43.1114ZM12.0644 27.7663C11.5078 27.7622 10.9716 27.9758 10.5701 28.3613C10.1686 28.7469 9.93353 29.274 9.91499 29.8303V30.0865C9.91499 36.1221 13.0324 41.0331 16.8758 41.0331C20.7192 41.0331 23.8509 36.1221 23.8509 30.0865V29.8303C23.8287 29.2727 23.5906 28.7456 23.1868 28.3604C22.783 27.9752 22.2452 27.7621 21.6872 27.7663H12.0644Z" fill="#38BCEA"/>
<path d="M18.5133 37.0189H15.2535C14.7388 37.0189 14.2449 36.8154 13.8796 36.4527C13.5142 36.09 13.3071 35.5977 13.3034 35.0829V31.8232C13.3071 31.3084 13.5142 30.816 13.8796 30.4534C14.2449 30.0907 14.7388 29.8872 15.2535 29.8872H18.5133C19.0268 29.8872 19.5192 30.0912 19.8822 30.4542C20.2453 30.8173 20.4492 31.3097 20.4492 31.8232V35.0829C20.4492 35.5964 20.2453 36.0888 19.8822 36.4518C19.5192 36.8149 19.0268 37.0189 18.5133 37.0189ZM15.3816 34.9548H18.371V31.9655H15.3816V34.9548Z" fill="#38BCEA"/>
<path d="M16.8762 38.2145C16.7397 38.2145 16.6046 38.1876 16.4785 38.1354C16.3524 38.0831 16.2379 38.0066 16.1414 37.9101C16.0449 37.8136 15.9683 37.699 15.9161 37.573C15.8639 37.4469 15.837 37.3118 15.837 37.1753V35.9938C15.8199 35.8481 15.8338 35.7004 15.8778 35.5605C15.9218 35.4206 15.995 35.2915 16.0925 35.1819C16.19 35.0722 16.3096 34.9845 16.4434 34.9244C16.5773 34.8643 16.7223 34.8333 16.869 34.8333C17.0158 34.8333 17.1608 34.8643 17.2946 34.9244C17.4285 34.9845 17.5481 35.0722 17.6456 35.1819C17.7431 35.2915 17.8162 35.4206 17.8603 35.5605C17.9043 35.7004 17.9182 35.8481 17.9011 35.9938V37.1753C17.9011 37.4485 17.7936 37.7106 17.6018 37.9051C17.4099 38.0996 17.1493 38.2107 16.8762 38.2145V38.2145Z" fill="#38BCEA"/>
<path d="M16.876 31.9656C16.6004 31.9656 16.3361 31.8561 16.1412 31.6612C15.9463 31.4663 15.8368 31.202 15.8368 30.9264V30.172C15.8368 30.0355 15.8637 29.9004 15.9159 29.7743C15.9682 29.6482 16.0447 29.5337 16.1412 29.4372C16.2377 29.3407 16.3523 29.2641 16.4783 29.2119C16.6044 29.1597 16.7395 29.1328 16.876 29.1328C17.0124 29.1328 17.1476 29.1597 17.2736 29.2119C17.3997 29.2641 17.5143 29.3407 17.6108 29.4372C17.7073 29.5337 17.7838 29.6482 17.836 29.7743C17.8882 29.9004 17.9151 30.0355 17.9151 30.172V30.9264C17.9151 31.202 17.8057 31.4663 17.6108 31.6612C17.4159 31.8561 17.1516 31.9656 16.876 31.9656V31.9656Z" fill="#38BCEA"/>
<path d="M32.89 43.1114C27.9078 43.1114 23.8509 37.2609 23.8509 30.0865V29.8018C23.8914 28.6966 24.3592 27.6502 25.1557 26.8829C25.9522 26.1156 27.0154 25.6872 28.1213 25.688H37.7441C38.8477 25.6871 39.9088 26.1135 40.7049 26.8778C41.5011 27.642 41.9704 28.6849 42.0146 29.7876V30.0865C41.9434 37.2609 37.8295 43.1114 32.89 43.1114ZM28.0786 27.7663C27.522 27.7622 26.9858 27.9758 26.5843 28.3613C26.1828 28.7469 25.9477 29.274 25.9292 29.8303V30.0865C25.9292 36.1221 29.0466 41.0331 32.89 41.0331C36.7334 41.0331 39.8651 36.1221 39.8651 30.0865V29.8303C39.8429 29.2727 39.6048 28.7456 39.201 28.3604C38.7972 27.9752 38.2594 27.7621 37.7014 27.7663H28.0786Z" fill="#38BCEA"/>
<path d="M34.5275 37.0189H31.2677C31.0099 37.0246 30.7536 36.9787 30.5137 36.8839C30.2739 36.7892 30.0554 36.6475 29.8711 36.4672C29.6868 36.2868 29.5403 36.0715 29.4404 35.8338C29.3404 35.5961 29.289 35.3408 29.289 35.0829V31.8232C29.289 31.3097 29.493 30.8173 29.8561 30.4542C30.2191 30.0912 30.7115 29.8872 31.225 29.8872H34.4848C34.9957 29.891 35.4845 30.0966 35.8445 30.4592C36.2045 30.8219 36.4065 31.3122 36.4065 31.8232V35.0829C36.4067 35.5866 36.2106 36.0706 35.8597 36.4321C35.5089 36.7936 35.031 37.0041 34.5275 37.0189ZM31.3958 34.9548H34.3851V31.9655H31.3958V34.9548Z" fill="#38BCEA"/>
<path d="M32.8902 38.2149C32.7537 38.2149 32.6186 38.188 32.4925 38.1358C32.3664 38.0835 32.2519 38.007 32.1554 37.9105C32.0589 37.814 31.9824 37.6994 31.9301 37.5734C31.8779 37.4473 31.851 37.3122 31.851 37.1757V35.9942C31.851 35.8578 31.8779 35.7227 31.9301 35.5966C31.9824 35.4705 32.0589 35.356 32.1554 35.2595C32.2519 35.163 32.3664 35.0864 32.4925 35.0342C32.6186 34.982 32.7537 34.9551 32.8902 34.9551C33.0266 34.9551 33.1618 34.982 33.2878 35.0342C33.4139 35.0864 33.5285 35.163 33.625 35.2595C33.7215 35.356 33.798 35.4705 33.8502 35.5966C33.9024 35.7227 33.9293 35.8578 33.9293 35.9942V37.1757C33.9293 37.3122 33.9024 37.4473 33.8502 37.5734C33.798 37.6994 33.7215 37.814 33.625 37.9105C33.5285 38.007 33.4139 38.0835 33.2878 38.1358C33.1618 38.188 33.0266 38.2149 32.8902 38.2149Z" fill="#38BCEA"/>
<path d="M32.8902 31.9656C32.6146 31.9656 32.3503 31.8561 32.1554 31.6612C31.9605 31.4663 31.851 31.202 31.851 30.9264V30.172C31.851 30.0355 31.8779 29.9004 31.9301 29.7743C31.9824 29.6482 32.0589 29.5337 32.1554 29.4372C32.2519 29.3407 32.3664 29.2641 32.4925 29.2119C32.6186 29.1597 32.7537 29.1328 32.8902 29.1328C33.0266 29.1328 33.1618 29.1597 33.2878 29.2119C33.4139 29.2641 33.5285 29.3407 33.625 29.4372C33.7215 29.5337 33.798 29.6482 33.8502 29.7743C33.9024 29.9004 33.9293 30.0355 33.9293 30.172V30.9264C33.9293 31.202 33.8198 31.4663 33.625 31.6612C33.4301 31.8561 33.1658 31.9656 32.8902 31.9656V31.9656Z" fill="#38BCEA"/>
<path d="M48.9042 43.1114C43.922 43.1114 39.8651 37.2609 39.8651 30.0865V29.7876C39.9092 28.6849 40.3786 27.642 41.1747 26.8778C41.9708 26.1135 43.0319 25.6871 44.1355 25.688H53.7583C54.8619 25.6871 55.923 26.1135 56.7191 26.8778C57.5153 27.642 57.9846 28.6849 58.0287 29.7876V30.0865C57.9576 37.2609 53.9006 43.1114 48.9042 43.1114ZM44.0928 27.7663C43.5362 27.7622 43 27.9758 42.5985 28.3613C42.197 28.7469 41.9619 29.274 41.9434 29.8303V30.0865C41.9434 36.1221 45.0608 41.0331 48.9042 41.0331C52.7476 41.0331 55.8793 36.1221 55.8793 30.0865V29.8303C55.8571 29.2727 55.619 28.7456 55.2152 28.3604C54.8114 27.9752 54.2736 27.7621 53.7156 27.7663H44.0928Z" fill="#38BCEA"/>
<path d="M50.5414 37.0189H47.2816C46.7681 37.0189 46.2757 36.8149 45.9127 36.4518C45.5496 36.0888 45.3456 35.5964 45.3456 35.0829V31.8232C45.3456 31.3097 45.5496 30.8173 45.9127 30.4542C46.2757 30.0912 46.7681 29.8872 47.2816 29.8872H50.5414C51.0548 29.8872 51.5472 30.0912 51.9103 30.4542C52.2733 30.8173 52.4773 31.3097 52.4773 31.8232V35.0829C52.4773 35.5964 52.2733 36.0888 51.9103 36.4518C51.5472 36.8149 51.0548 37.0189 50.5414 37.0189ZM47.4097 34.9548H50.399V31.9655H47.4097V34.9548Z" fill="#38BCEA"/>
<path d="M48.9044 38.2149C48.7679 38.2149 48.6328 38.188 48.5067 38.1358C48.3806 38.0835 48.2661 38.007 48.1696 37.9105C48.0731 37.814 47.9966 37.6994 47.9443 37.5734C47.8921 37.4473 47.8652 37.3122 47.8652 37.1757V35.9942C47.8652 35.7186 47.9747 35.4543 48.1696 35.2595C48.3645 35.0646 48.6288 34.9551 48.9044 34.9551C49.18 34.9551 49.4443 35.0646 49.6392 35.2595C49.834 35.4543 49.9435 35.7186 49.9435 35.9942V37.1757C49.9435 37.3122 49.9166 37.4473 49.8644 37.5734C49.8122 37.6994 49.7357 37.814 49.6392 37.9105C49.5427 38.007 49.4281 38.0835 49.302 38.1358C49.176 38.188 49.0408 38.2149 48.9044 38.2149V38.2149Z" fill="#38BCEA"/>
<path d="M48.9044 31.9656C48.6288 31.9656 48.3645 31.8561 48.1696 31.6612C47.9747 31.4663 47.8652 31.202 47.8652 30.9264V30.172C47.8652 29.8964 47.9747 29.632 48.1696 29.4372C48.3645 29.2423 48.6288 29.1328 48.9044 29.1328C49.18 29.1328 49.4443 29.2423 49.6392 29.4372C49.834 29.632 49.9435 29.8964 49.9435 30.172V30.9264C49.9435 31.202 49.834 31.4663 49.6392 31.6612C49.4443 31.8561 49.18 31.9656 48.9044 31.9656V31.9656Z" fill="#38BCEA"/>
<path d="M1.73039 39.5811C1.4535 39.5736 1.19069 39.4574 0.998866 39.2576C0.80704 39.0578 0.701641 38.7904 0.705485 38.5135C0.705485 37.574 0.705485 35.0544 14.2286 33.4174C14.3747 33.399 14.5231 33.4123 14.6637 33.4564C14.8043 33.5004 14.9337 33.5743 15.0431 33.6729C15.1525 33.7715 15.2394 33.8926 15.2978 34.0278C15.3562 34.1631 15.3848 34.3093 15.3816 34.4566V34.9548H18.3709V33.9584C18.37 33.6969 18.4677 33.4448 18.6445 33.2522C18.8213 33.0596 19.0641 32.9407 19.3247 32.9192C22.7837 32.6487 26.4421 32.4922 30.3424 32.4352C30.482 32.4302 30.6211 32.4542 30.751 32.5056C30.8808 32.5571 30.9986 32.6349 31.0969 32.7341C31.2872 32.9337 31.3942 33.1986 31.3958 33.4744V34.8979H34.3851V33.4744C34.3856 33.3364 34.4135 33.1999 34.4672 33.0728C34.521 32.9457 34.5996 32.8305 34.6983 32.7341C34.7944 32.636 34.9098 32.5588 35.0371 32.5073C35.1645 32.4559 35.3012 32.4313 35.4385 32.4352C39.2961 32.4352 43.0114 32.6487 46.4563 32.9192C46.7168 32.9407 46.9597 33.0596 47.1364 33.2522C47.3132 33.4448 47.4109 33.6969 47.41 33.9584V34.9548H50.3993V34.4566C50.4004 34.3093 50.4324 34.1639 50.4932 34.0298C50.554 33.8956 50.6422 33.7758 50.7522 33.6779C50.8622 33.5799 50.9915 33.5062 51.1318 33.4613C51.2721 33.4164 51.4202 33.4015 51.5666 33.4174C65.0897 35.0544 65.0897 37.574 65.0897 38.5135C65.0897 38.7891 64.9802 39.0534 64.7853 39.2483C64.5904 39.4432 64.3261 39.5526 64.0505 39.5526C63.7749 39.5526 63.5106 39.4432 63.3157 39.2483C63.1209 39.0534 63.0114 38.7891 63.0114 38.5135C62.8263 38.1007 60.5345 36.6914 52.4064 35.6665C52.2942 36.0752 52.0511 36.4358 51.7142 36.6929C51.3774 36.95 50.9654 37.0895 50.5417 37.09H47.2819C46.7684 37.09 46.276 36.8861 45.913 36.523C45.5499 36.1599 45.3459 35.6675 45.3459 35.1541V34.9833C42.499 34.784 39.5524 34.6558 36.4634 34.5989V35.1541C36.4634 35.6675 36.2594 36.1599 35.8964 36.523C35.5333 36.8861 35.0409 37.09 34.5275 37.09H31.2677C31.0038 37.096 30.7414 37.048 30.4968 36.9489C30.2521 36.8497 30.0303 36.7016 29.845 36.5137C29.6597 36.3257 29.5148 36.1018 29.4191 35.8557C29.3235 35.6097 29.2793 35.3467 29.289 35.0829V34.5704C26.2001 34.5704 23.225 34.7555 20.4065 34.9548V35.1256C20.4065 35.6391 20.2025 36.1314 19.8395 36.4945C19.4764 36.8576 18.984 37.0615 18.4706 37.0615H15.2535C14.8297 37.0611 14.4178 36.9216 14.0809 36.6644C13.7441 36.4073 13.5009 36.0467 13.3887 35.6381C5.26064 36.7057 2.9546 38.1149 2.76954 38.5847C2.76771 38.7186 2.73926 38.8509 2.68585 38.9737C2.63245 39.0966 2.55516 39.2076 2.45847 39.3003C2.36178 39.3931 2.24762 39.4656 2.12263 39.5138C1.99764 39.562 1.86431 39.5849 1.73039 39.5811V39.5811Z" fill="#38BCEA"/>
</svg>
