<svg aria-hidden="true" style="position: absolute; width: 0; height: 0; overflow: hidden;" version="1.1" xmlns="http://www.w3.org/2000/svg" xmlns:xlink="http://www.w3.org/1999/xlink">
<defs>
<symbol id="icon-veneers" viewBox="0 0 54 32">
<path d="M22.676 14.945c-2.831 0-5.149-2.679-5.149-5.976v-6.512c0-1.132 0.918-2.050 2.051-2.050h6.209c0 0 0 0 0.001 0 1.132 0 2.050 0.918 2.050 2.050v0 6.512c0 3.297-2.319 5.976-5.161 5.976zM19.577 2.13c-0.004-0-0.008-0-0.012-0-0.186 0-0.338 0.151-0.338 0.338 0 0.004 0 0.008 0 0.012l-0-0.001v6.513c0 2.33 1.55 4.276 3.495 4.276s3.495-1.911 3.495-4.276v-6.536c0-0.004 0-0.008 0-0.013 0-0.186-0.151-0.337-0.337-0.337-0.004 0-0.009 0-0.013 0l0.001-0-6.291 0.023z"></path>
<path d="M31.285 14.945c-2.843 0-5.149-2.679-5.149-5.976v-6.512c0-1.128 0.912-2.043 2.039-2.050h6.222c1.127 0.007 2.039 0.922 2.039 2.050v6.512c0 3.297-2.307 5.976-5.15 5.976zM28.175 2.13c-0 0-0.001 0-0.001 0-0.186 0-0.338 0.151-0.338 0.338 0 0.004 0 0.008 0 0.012l-0-0.001v6.513c0 2.33 1.55 4.276 3.495 4.276s3.495-1.911 3.495-4.276v-6.536c0-0.003 0-0.007 0-0.012 0-0.187-0.151-0.338-0.338-0.338-0 0-0 0-0 0v0l-6.314 0.023z"></path>
<path d="M39.44 15.26c-2.587 0-4.66-2.447-4.66-5.441v-5.825c0.007-1.057 0.865-1.91 1.922-1.91 0 0 0 0 0 0h5.58c0 0 0 0 0 0 1.057 0 1.915 0.854 1.922 1.91v5.826c-0.046 2.994-2.166 5.44-4.765 5.44zM36.656 3.738c-0.12 0.006-0.215 0.102-0.221 0.221l-0 0.001v5.825c0 2.062 1.352 3.74 3.006 3.74s3.018-1.678 3.018-3.74v-5.825c-0.006-0.12-0.102-0.215-0.221-0.221l-0.001-0h-5.581zM14.521 15.26c-2.597 0-4.66-2.447-4.66-5.441v-5.825c0.007-1.057 0.865-1.91 1.922-1.91 0 0 0 0 0 0h5.569c0 0 0 0 0 0 1.057 0 1.915 0.854 1.922 1.91v5.826c-0.047 2.994-2.156 5.44-4.754 5.44zM11.736 3.738c-0.122 0-0.221 0.099-0.221 0.221 0 0 0 0 0 0v0 5.825c0 2.062 1.351 3.74 3.005 3.74s3.006-1.678 3.006-3.74v-5.825c0-0.122-0.099-0.221-0.221-0.221v0h-5.569zM25.787 31.966h-6.209c-1.133 0-2.051-0.918-2.051-2.051v0-6.512c0-3.297 2.33-5.976 5.149-5.976s5.161 2.68 5.161 5.977v6.512c0 0 0 0.001 0 0.001 0 1.132-0.918 2.049-2.049 2.049-0 0-0 0-0.001 0h0zM22.676 19.151c-1.899 0-3.495 1.91-3.495 4.276v6.512c-0 0.003-0 0.008-0 0.012 0 0.186 0.151 0.338 0.338 0.338 0.004 0 0.008-0 0.012-0l-0.001 0h6.209c0.004 0 0.009 0 0.013 0 0.186 0 0.337-0.151 0.337-0.337 0-0.004-0-0.009-0-0.013l0 0.001v-6.513c0.046-2.388-1.503-4.298-3.414-4.298v0.023z"></path>
<path d="M34.396 31.966h-6.221c-1.128-0.007-2.039-0.922-2.039-2.051 0 0 0-0 0-0v0-6.512c0-3.297 2.33-5.977 5.149-5.977s5.149 2.68 5.149 5.977v6.512c0 0 0 0 0 0 0 1.128-0.911 2.044-2.038 2.051h-0.001zM31.285 19.151c-1.899 0-3.495 1.91-3.495 4.276v6.512c-0 0.004-0 0.008-0 0.012 0 0.186 0.151 0.337 0.337 0.337 0 0 0.001 0 0.001 0h6.222c0 0 0.001 0 0.001 0 0.186 0 0.337-0.151 0.337-0.337 0-0.004-0-0.009-0-0.013l0 0.001v-6.513c0.046-2.388-1.503-4.298-3.402-4.298v0.023z"></path>
<path d="M42.237 30.323h-5.581c-1.062 0-1.922-0.861-1.922-1.922v0-5.825c0-2.994 2.12-5.44 4.66-5.44s4.718 2.446 4.718 5.44v5.825c0 0 0 0 0 0.001 0 1.045-0.834 1.895-1.873 1.921l-0.002 0zM39.44 18.813c-1.654 0-3.006 1.677-3.006 3.739v5.825c0 0 0 0 0 0 0 0.125 0.098 0.226 0.221 0.233l0.001 0h5.581c0.124-0.006 0.221-0.108 0.221-0.233 0-0 0-0 0-0v0-5.825c0-2.062-1.352-3.74-3.018-3.74zM17.305 30.323h-5.569c-1.061-0.001-1.921-0.861-1.921-1.922v-5.825c0-2.994 2.109-5.44 4.66-5.44s4.66 2.446 4.66 5.44v5.825c0 0 0 0.001 0 0.002 0 1.029-0.808 1.869-1.824 1.92l-0.005 0zM14.521 18.813c-1.654 0-3.005 1.677-3.005 3.739v5.825c-0 0.003-0 0.008-0 0.012 0 0.122 0.099 0.221 0.221 0.221 0 0 0 0 0 0h5.569c0.122-0 0.222-0.1 0.222-0.222 0-0.004-0-0.008-0-0.011l0 0.001v-5.825c0-2.062-1.352-3.74-3.006-3.74z"></path>
<path d="M43.309 28.855c-0.459-0.014-0.825-0.39-0.825-0.851 0-0.399 0.274-0.733 0.644-0.826l0.006-0.001c5.181-1.083 9.017-5.613 9.017-11.039s-3.836-9.956-8.943-11.026l-0.073-0.013c-0.375-0.094-0.648-0.428-0.648-0.826 0-0.47 0.381-0.85 0.85-0.85 0.048 0 0.095 0.004 0.141 0.012l-0.005-0.001c5.96 1.25 10.371 6.462 10.371 12.704s-4.411 11.455-10.287 12.689l-0.084 0.015-0.163 0.012z"></path>
<path d="M43.308 24.463c-0.287-0.003-0.54-0.143-0.697-0.358l-0.002-0.002c-0.096-0.134-0.153-0.302-0.153-0.483 0-0.28 0.137-0.528 0.348-0.681l0.002-0.002c1.417-1.027 2.489-2.453 3.058-4.111l0.018-0.059c-0.649-0.678-1.049-1.6-1.049-2.616s0.4-1.937 1.050-2.617l-0.001 0.001c-0.588-1.718-1.659-3.143-3.052-4.154l-0.024-0.017c-0.213-0.154-0.35-0.402-0.35-0.682 0-0.181 0.057-0.348 0.155-0.486l-0.002 0.003c0.157-0.211 0.405-0.346 0.684-0.346 0.179 0 0.346 0.055 0.483 0.15l-0.003-0.002c1.88 1.359 3.258 3.311 3.864 5.579l0.016 0.070c0.017 0.063 0.026 0.135 0.026 0.209 0 0.312-0.168 0.584-0.418 0.733l-0.004 0.002c-0.458 0.372-0.748 0.936-0.748 1.567s0.29 1.195 0.745 1.564l0.004 0.003c0.254 0.15 0.422 0.423 0.422 0.735 0 0.074-0.010 0.146-0.027 0.215l0.001-0.006c-0.608 2.349-1.978 4.315-3.827 5.665l-0.029 0.020c-0.15 0.082-0.32 0.118-0.49 0.105z"></path>
<path d="M47.677 19.523c-0.175 0.032-0.377 0.050-0.583 0.050-1.898 0-3.437-1.539-3.437-3.437s1.539-3.437 3.437-3.437c1.898 0 3.437 1.539 3.437 3.437 0 0.003 0 0.006 0 0.009v-0c0.006 0.070 0.009 0.152 0.009 0.234 0 1.64-1.25 2.988-2.85 3.143l-0.013 0.001zM47.677 14.456c-0.618 0-1.165 0.769-1.165 1.689 0 0.921 0.524 1.678 1.164 1.678 0.641 0 1.166-0.769 1.166-1.678s-0.536-1.689-1.165-1.689zM10.664 28.855h-0.174c-5.961-1.249-10.373-6.462-10.373-12.705s4.412-11.456 10.288-12.69l0.084-0.015c0.050-0.011 0.108-0.017 0.168-0.017 0.41 0 0.752 0.29 0.833 0.676l0.001 0.006c0.012 0.053 0.019 0.115 0.019 0.177 0 0.408-0.291 0.748-0.678 0.824l-0.005 0.001c-5.179 1.085-9.012 5.614-9.012 11.038s3.833 9.953 8.939 11.025l0.073 0.013c0.377 0.093 0.651 0.428 0.651 0.827 0 0.457-0.361 0.83-0.813 0.85l-0.002 0v-0.012z"></path>
<path d="M10.664 24.463c-0.188-0.003-0.361-0.063-0.503-0.165l0.003 0.002c-1.877-1.362-3.253-3.313-3.863-5.579l-0.016-0.071c-0.017-0.063-0.026-0.135-0.026-0.209 0-0.312 0.168-0.584 0.418-0.733l0.004-0.002c0.458-0.372 0.748-0.936 0.748-1.567s-0.29-1.195-0.744-1.564l-0.004-0.003c-0.254-0.15-0.422-0.423-0.422-0.735 0-0.074 0.010-0.146 0.027-0.215l-0.001 0.006c0.626-2.337 2.002-4.288 3.85-5.63l0.029-0.020c0.147-0.124 0.338-0.199 0.547-0.199 0.469 0 0.85 0.38 0.85 0.85 0 0.305-0.161 0.573-0.403 0.723l-0.004 0.002c-1.413 1.028-2.481 2.453-3.046 4.111l-0.018 0.059c0.641 0.682 1.035 1.603 1.035 2.616s-0.394 1.934-1.037 2.617l0.002-0.002c0.583 1.717 1.651 3.143 3.040 4.154l0.024 0.017c0.213 0.154 0.35 0.402 0.35 0.682 0 0.181-0.057 0.348-0.154 0.485l0.002-0.003c-0.152 0.222-0.402 0.367-0.686 0.373h-0.001z"></path>
<path d="M6.284 19.523c-0.179 0.033-0.384 0.052-0.594 0.052-1.898 0-3.437-1.539-3.437-3.437s1.539-3.437 3.437-3.437c1.898 0 3.437 1.539 3.437 3.437 0 0.002 0 0.005 0 0.007v-0c0.006 0.074 0.010 0.16 0.010 0.247 0 1.634-1.246 2.977-2.839 3.131l-0.013 0.001zM6.284 14.456c-0.618 0-1.165 0.769-1.165 1.689 0 0.921 0.524 1.678 1.164 1.678 0.641 0 1.166-0.769 1.166-1.678s-0.547-1.689-1.165-1.689z"></path>
</symbol>
<symbol id="icon-treat" viewBox="0 0 31 32">
<path d="M16.082 5.456c-0.055 0.015-0.117 0.024-0.182 0.024-0.036 0-0.071-0.003-0.105-0.008l0.004 0c-1.4-0.367-2.615-1.018-3.633-1.892l0.012 0.010c-0.091-0.097-0.148-0.229-0.148-0.373 0-0.301 0.244-0.545 0.545-0.545 0.133 0 0.255 0.048 0.35 0.127l-0.001-0.001c0.888 0.732 1.952 1.287 3.117 1.593l0.057 0.013c0.232 0.063 0.401 0.271 0.401 0.52 0 0.052-0.007 0.102-0.021 0.149l0.001-0.004c-0.055 0.19-0.204 0.336-0.393 0.385l-0.004 0.001zM20.847 31.891c-0.055 0.013-0.119 0.021-0.185 0.021-0.051 0-0.1-0.005-0.149-0.013l0.005 0.001c-0.222-0.067-0.381-0.269-0.381-0.508 0-0.002 0-0.005 0-0.007v0c0-0.045-0.105-4.532-4.481-9.894-0.071-0.091-0.114-0.206-0.114-0.332 0-0.299 0.242-0.541 0.541-0.541 0.163 0 0.309 0.072 0.408 0.186l0.001 0.001c0.806 0.923 1.548 1.946 2.194 3.034l0.053 0.096c1.186 2.025 4.308 2.336 4.688 0.020 0.42-2.564-0.093-4.432-0.476-5.404-0.177-0.431-0.28-0.932-0.28-1.456 0-0.2 0.015-0.397 0.044-0.589l-0.003 0.022c0.097-0.635 0.187-1.292 0.261-1.941 0.029-0.276 0.261-0.488 0.542-0.488 0.174 0 0.329 0.082 0.429 0.209l0.001 0.001c0.072 0.092 0.116 0.209 0.116 0.336 0 0.024-0.002 0.048-0.005 0.071l0-0.003c-0.097 0.876-0.191 1.552-0.302 2.223l0.033-0.244c-0.075 0.493-0.013 0.996 0.179 1.456 0.747 1.852 1.949 6.877-2.808 13.554-0.077 0.097-0.186 0.166-0.31 0.192l-0.003 0.001z"></path>
<path d="M4.419 31.9c-0.182-0-0.343-0.091-0.439-0.23l-0.001-0.002c-4.764-6.676-3.562-11.701-2.815-13.554 0.186-0.462 0.246-0.964 0.172-1.456-0.342-2.089-0.56-4.528-0.604-7.010l-0.001-0.047c0.007-4.712 3.42-8.535 7.632-8.535 0.849 0.004 1.684 0.162 2.468 0.46 0.511 0.198 1.103 0.312 1.721 0.312s1.21-0.114 1.755-0.323l-0.034 0.011c0.783-0.298 1.619-0.456 2.468-0.461 1.857 0.018 3.543 0.739 4.806 1.909l-0.005-0.004c0.103 0.1 0.166 0.24 0.166 0.394 0 0.304-0.246 0.55-0.55 0.55-0.139 0-0.267-0.052-0.364-0.137l0.001 0.001c-1.054-1.003-2.484-1.619-4.057-1.619-1.476 0-2.825 0.543-3.859 1.439l0.007-0.006c-0.092 0.081-0.214 0.13-0.347 0.13s-0.255-0.049-0.348-0.13l0.001 0.001c-1.026-0.882-2.368-1.423-3.836-1.434h-0.002c-3.607 0-6.534 3.346-6.534 7.468 0.038 2.308 0.235 4.611 0.59 6.893 0.028 0.173 0.043 0.373 0.043 0.576 0 0.522-0.104 1.019-0.291 1.473l0.009-0.026c-0.543 1.364-1.361 4.637 0.703 9.141 0.371 0.81 1.545 0.635 1.851-0.203 0.072-0.223 0.277-0.381 0.52-0.381 0.301 0 0.545 0.244 0.545 0.545 0 0.076-0.015 0.148-0.043 0.213l0.001-0.004c-0.416 1.035-0.698 2.234-0.789 3.485l-0.002 0.039c-0.002 0.241-0.16 0.444-0.377 0.515l-0.004 0.001c-0.029 0.007-0.063 0.012-0.098 0.012-0.021 0-0.041-0.002-0.061-0.004l0.002 0z"></path>
<path d="M10.438 25.187c0 0 0 0 0-0 0-0.004-0.003-0.008-0.007-0.008h-0c-0.1-0.003-0.193-0.033-0.271-0.083l0.002 0.001-4.625-2.753c-0.112-0.067-0.23-0.136-0.295-0.249-0.046-0.078-0.073-0.173-0.073-0.273 0-0.301 0.244-0.546 0.546-0.546 0.006 0 0.012 0 0.019 0l-0.001-0c0.13 0.005 0.245 0.075 0.356 0.141l4.627 2.76c0.162 0.097 0.269 0.271 0.269 0.47 0 0.298-0.24 0.541-0.537 0.546h-0c-0.004 0-0.007-0.003-0.007-0.007v0zM13.223 21.274c-0.149-0.004-0.284-0.066-0.381-0.165l-0-0-2.717-2.703c-0.091-0.097-0.148-0.229-0.148-0.373s0.056-0.276 0.148-0.374l-0 0 5.422-6.25c1.81-2.091 3.721-3.979 5.77-5.709l0.076-0.063 4.369-3.659c0.095-0.079 0.218-0.128 0.353-0.128 0.154 0 0.293 0.063 0.393 0.164l2.703 2.704c0.092 0.097 0.148 0.229 0.148 0.373s-0.056 0.276-0.148 0.374l0-0-3.651 4.376c-1.783 2.139-3.657 4.060-5.67 5.827l-0.058 0.050-6.243 5.421c-0.096 0.084-0.223 0.135-0.362 0.135-0.002 0-0.003 0-0.005-0h0zM12.183 16.935c-0.226 0.262-0.364 0.606-0.364 0.982 0 0.833 0.675 1.508 1.508 1.508 0.379 0 0.725-0.14 0.99-0.37l-0.002 0.002 4.771-4.16c2.035-1.779 3.877-3.656 5.567-5.665l0.064-0.078 2.429-2.902c0.224-0.266 0.36-0.613 0.36-0.992 0-0.854-0.692-1.546-1.546-1.546-0.378 0-0.725 0.136-0.994 0.362l0.002-0.002-2.895 2.423c-2.090 1.752-3.967 3.596-5.691 5.577l-0.052 0.061-4.147 4.802z"></path>
</symbol>
<symbol id="icon-surgery" viewBox="0 0 31 32">
<path d="M22.626 11.244c-0.001 0-0.002 0-0.003 0-0.095 0-0.183-0.026-0.259-0.070l0.002 0.001c-0.813-0.492-1.486-1.134-1.998-1.894l-0.014-0.022c-0.044-0.073-0.069-0.16-0.069-0.254 0-0.183 0.098-0.343 0.245-0.43l0.002-0.001c0.074-0.048 0.164-0.076 0.261-0.076 0.181 0 0.338 0.099 0.422 0.245l0.001 0.002c0.444 0.64 1.003 1.167 1.653 1.56l0.024 0.014c0.143 0.090 0.237 0.246 0.237 0.425 0 0.096-0.027 0.186-0.074 0.262l0.001-0.002c-0.084 0.144-0.239 0.24-0.415 0.24-0.006 0-0.011-0-0.017-0l0.001 0z"></path>
<path d="M19.607 27.26c-0.299-0.003-0.577-0.090-0.814-0.237l0.007 0.004c-0.47-0.321-0.774-0.854-0.774-1.457 0-0.199 0.033-0.389 0.094-0.567l-0.004 0.012 0.582-2.053c0.067-0.207 0.105-0.445 0.105-0.693 0-0.355-0.079-0.691-0.221-0.992l0.006 0.014c-0.209-0.458-0.599-0.803-1.076-0.948l-0.012-0.003c-0.14-0.040-0.3-0.063-0.465-0.063-0.359 0-0.694 0.108-0.972 0.293l0.006-0.004c-0.478 0.318-0.83 0.794-0.982 1.352l-0.004 0.017-0.582 2.053c-0.193 0.757-0.861 1.311-1.661 1.328l-0.002 0c-0.731-0.003-1.344-0.507-1.511-1.187l-0.002-0.011c-1.574-5.626 0.506-12.929 0.596-13.237 0.89-3.080 3.853-4.935 6.612-4.106 0.988 0.293 1.816 0.869 2.415 1.632l0.008 0.010c0.483-0.18 1.042-0.284 1.625-0.284 0.465 0 0.914 0.066 1.339 0.19l-0.034-0.008c1.381 0.421 2.482 1.392 3.067 2.652l0.013 0.030c0.358 0.757 0.567 1.644 0.567 2.58 0 0.63-0.095 1.237-0.27 1.81l0.012-0.044c-0.089 0.308-2.211 7.597-6.536 11.519-0.285 0.247-0.66 0.398-1.069 0.398-0.021 0-0.042-0-0.063-0.001l0.003 0zM17.020 19.292c0.248 0 0.494 0.034 0.732 0.103 0.768 0.234 1.38 0.774 1.704 1.475l0.007 0.017c0.201 0.415 0.318 0.901 0.318 1.416 0 0.34-0.051 0.667-0.146 0.976l0.006-0.023-0.589 2.054c-0.031 0.080-0.049 0.172-0.049 0.268 0 0.256 0.127 0.482 0.32 0.62l0.002 0.002c0.078 0.042 0.171 0.067 0.269 0.067 0.163 0 0.31-0.068 0.414-0.176l0-0c4.108-3.736 6.229-10.95 6.249-11.053 0.363-1.204 0.273-2.499-0.253-3.641-0.472-1.035-1.352-1.815-2.43-2.142l-0.028-0.007c-0.311-0.091-0.669-0.143-1.039-0.143-0.573 0-1.118 0.126-1.606 0.352l0.024-0.010c-0.059 0.026-0.127 0.041-0.199 0.041-0.172 0-0.324-0.086-0.416-0.217l-0.001-0.002c-0.483-0.747-1.201-1.307-2.047-1.58l-0.027-0.008c-2.231-0.643-4.64 0.91-5.38 3.464 0 0.068-2.053 7.337-0.595 12.69 0.052 0.265 0.279 0.464 0.554 0.472l0.001 0c0.34-0.030 0.615-0.279 0.684-0.604l0.001-0.005 0.582-2.053c0.23-0.807 0.731-1.473 1.397-1.908l0.013-0.008c0.429-0.271 0.952-0.432 1.511-0.432 0.012 0 0.025 0 0.037 0l-0.002-0h-0.021z"></path>
<path d="M16.432 31.709c-0.041 0.001-0.089 0.001-0.137 0.001-3.221 0-6.006-1.868-7.33-4.58l-0.021-0.048c-0.626-1.447-2.031-2.446-3.672-2.471l-0.003-0h-2.594c-0.018 0.002-0.039 0.004-0.060 0.004-0.276 0-0.5-0.224-0.5-0.5s0.224-0.5 0.5-0.5c0.021 0 0.042 0.001 0.062 0.004l-0.002-0h2.594c2.047 0.020 3.8 1.257 4.573 3.020l0.013 0.032c1.246 2.414 3.722 4.036 6.578 4.036s5.332-1.622 6.558-3.995l0.019-0.041c0.785-1.797 2.538-3.034 4.583-3.053l0.002-0h2.594c0.018-0.002 0.039-0.004 0.060-0.004 0.276 0 0.5 0.224 0.5 0.5s-0.224 0.5-0.5 0.5c-0.021 0-0.042-0.001-0.062-0.004l0.002 0h-2.594c-1.643 0.035-3.045 1.030-3.672 2.445l-0.010 0.026c-1.341 2.76-4.123 4.628-7.342 4.628-0.049 0-0.097-0-0.146-0.001l0.007 0zM4.604 14.502c-1.070-0.002-1.962-0.758-2.173-1.765l-0.003-0.014-2.389-11.834c-0.009-0.034-0.014-0.074-0.014-0.114 0-0.244 0.18-0.447 0.415-0.481l0.003-0c0.031-0.007 0.067-0.011 0.104-0.011 0.24 0 0.439 0.171 0.484 0.398l0 0.003 2.389 11.827c0.118 0.564 0.61 0.981 1.201 0.981 0.084 0 0.165-0.008 0.244-0.024l-0.008 0.001c0.327-0.070 0.6-0.261 0.777-0.522l0.003-0.004c0.127-0.19 0.202-0.424 0.202-0.676 0-0.085-0.009-0.169-0.025-0.249l0.001 0.008-1.506-7.358c-0.002-0.018-0.004-0.040-0.004-0.061 0-0.276 0.224-0.5 0.5-0.5 0.23 0 0.423 0.155 0.482 0.365l0.001 0.004 1.492 7.372c0.028 0.131 0.044 0.282 0.044 0.437 0 0.457-0.139 0.881-0.377 1.233l0.005-0.008c-0.324 0.481-0.818 0.826-1.395 0.949l-0.015 0.003c-0.132 0.026-0.283 0.041-0.438 0.041v0z"></path>
<path d="M10.066 23.886c-0.028 0.005-0.060 0.007-0.092 0.007s-0.065-0.003-0.096-0.008l0.003 0-5.422-2.198c-0.184-0.076-0.312-0.255-0.312-0.463 0-0.081 0.019-0.157 0.053-0.225l-0.001 0.003 1.157-2.457-0.904-4.456c-0.006-0.030-0.010-0.064-0.010-0.098 0-0.241 0.17-0.442 0.397-0.489l0.003-0.001c0.031-0.007 0.067-0.011 0.104-0.011 0.24 0 0.44 0.171 0.484 0.398l0 0.003 0.938 4.613c0.021 0.107 0.007 0.218-0.041 0.315l-0.999 2.128 4.921 1.999c0.194 0.072 0.329 0.255 0.329 0.469 0 0.078-0.018 0.152-0.050 0.218l0.001-0.003c-0.089 0.153-0.252 0.254-0.439 0.254-0.009 0-0.018-0-0.027-0.001l0.001 0zM15.87 13.674c-0.002 0-0.004 0-0.006 0-0.208 0-0.386-0.129-0.458-0.312l-0.001-0.003-0.554-1.43c-0.020-0.052-0.031-0.112-0.031-0.175s0.011-0.123 0.032-0.178l-0.001 0.004 0.493-1.369-1.027-2.224c-0.041-0.071-0.066-0.157-0.066-0.248 0-0.276 0.224-0.5 0.5-0.5 0.215 0 0.399 0.136 0.469 0.327l0.001 0.003 1.116 2.402c0.048 0.121 0.048 0.256 0 0.376l-0.5 1.41 0.493 1.225c0.020 0.053 0.032 0.114 0.032 0.178 0 0.276-0.217 0.5-0.49 0.513l-0.001 0z"></path>
<path d="M17.089 11.073c-0.023 0.003-0.049 0.005-0.075 0.005s-0.053-0.002-0.078-0.005l0.003 0-1.218-0.384c-0.205-0.068-0.351-0.258-0.351-0.482 0-0.053 0.008-0.104 0.023-0.151l-0.001 0.004c0.064-0.203 0.251-0.348 0.471-0.348 0.057 0 0.111 0.010 0.162 0.027l-0.003-0.001 1.218 0.383c0.197 0.070 0.336 0.255 0.336 0.472 0 0.271-0.216 0.492-0.485 0.5l-0.001 0v-0.020z"></path>
</symbol>
<symbol id="icon-logo" viewBox="0 0 36 32">
<path d="M21.474 22.258c-0.003 0-0.007 0-0.011 0-0.099 0-0.189-0.035-0.26-0.094l0.001 0.001c-0.067-0.051-0.11-0.132-0.11-0.222 0-0.001 0-0.001 0-0.002v0-12.1l-5.87 12.201c-0.063 0.12-0.187 0.2-0.33 0.2-0.011 0-0.021-0-0.031-0.001l0.001 0h-0.1c-0.009 0.001-0.020 0.001-0.031 0.001-0.143 0-0.266-0.080-0.329-0.198l-0.001-0.002-5.829-11.886v11.786c-0.001 0.094-0.043 0.177-0.11 0.232l-0.001 0c-0.072 0.062-0.167 0.1-0.27 0.1s-0.198-0.038-0.271-0.101l0.001 0c-0.067-0.056-0.11-0.139-0.111-0.233v-13.429c0.002-0.031 0.009-0.059 0.021-0.085l-0.001 0.001c0.041-0.145 0.173-0.25 0.329-0.25 0.011 0 0.022 0.001 0.033 0.002l-0.001-0c0.009-0.001 0.020-0.001 0.031-0.001 0.143 0 0.267 0.081 0.329 0.199l0.001 0.002 6.25 12.783 6.15-12.766c0.080-0.166 0.208-0.214 0.418-0.214h0.103c0.001 0 0.003-0 0.005-0 0.105 0 0.201 0.038 0.275 0.1l-0.001-0.001c0.072 0.053 0.119 0.138 0.121 0.233v13.112h1.042v-13.114c0.001-0.093 0.043-0.176 0.109-0.232l0-0 0.111-0.1h0.16c0.003-0 0.006-0 0.009-0 0.101 0 0.193 0.038 0.262 0.1l-0-0c0.067 0.056 0.109 0.139 0.11 0.232v13.429c0 0.001 0 0.002 0 0.002 0 0.090-0.043 0.17-0.109 0.221l-0.001 0c-0.018 0.015-0.038 0.029-0.060 0.041l-0.002 0.001c-0.061 0.030-0.133 0.049-0.209 0.050h-0c-0.030 0.003-0.065 0.004-0.1 0.004s-0.070-0.001-0.105-0.004l0.005 0h-1.622z"></path>
<path d="M27.543 8.127c0.098-0.002 0.194 0.031 0.271 0.092 0.067 0.051 0.11 0.131 0.11 0.221 0 0.001 0 0.002 0 0.003v-0c-0 0.094-0.043 0.178-0.109 0.233l-0 0c-0.069 0.061-0.16 0.099-0.26 0.099-0.004 0-0.008-0-0.012-0h-3.865v12.916c0 0.002 0 0.005 0 0.008 0 0.093-0.043 0.177-0.11 0.232l-0.001 0c-0.074 0.057-0.168 0.091-0.27 0.091s-0.196-0.034-0.272-0.092l0.001 0.001c-0.068-0.055-0.111-0.138-0.111-0.232 0-0.003 0-0.006 0-0.009v0-13.217c0.004-0.109 0.068-0.202 0.16-0.248l0.002-0.001c0.074-0.062 0.17-0.1 0.275-0.1 0.001 0 0.003 0 0.004 0h4.188zM24.622 22.289c-0.001 0-0.003 0-0.004 0-0.104 0-0.2-0.035-0.276-0.094l0.001 0.001c-0.072-0.049-0.119-0.131-0.119-0.224v-7.139c0.002-0.095 0.048-0.179 0.119-0.231l0.001-0.001c0.073-0.062 0.169-0.1 0.273-0.1 0.002 0 0.004 0 0.006 0h-0c0.003-0 0.007-0 0.011-0 0.146 0 0.273 0.081 0.339 0.201l0.001 0.002c0.018 0.038 0.029 0.082 0.030 0.129v6.793h2.544c0.003-0 0.007-0 0.011-0 0.146 0 0.273 0.081 0.339 0.201l0.001 0.002c0.019 0.041 0.029 0.084 0.030 0.129 0 0.001 0 0.002 0 0.003 0 0.090-0.043 0.17-0.109 0.221l-0.001 0c-0.070 0.058-0.161 0.092-0.26 0.092-0.004 0-0.007-0-0.011-0h0.001l-2.925 0.015zM28.608 8.16c0.014-0 0.032-0 0.049-0 1.223 0 2.365 0.346 3.334 0.945l-0.027-0.016c1.019 0.624 1.842 1.477 2.413 2.49l0.018 0.034c0.567 0.983 0.901 2.162 0.901 3.42 0 0.020-0 0.041-0 0.061l0-0.003c0 1.257-0.3 2.631-0.902 3.692-0.577 1.038-1.415 1.908-2.431 2.523-0.942 0.584-2.084 0.929-3.306 0.929-0.017 0-0.035-0-0.052-0l0.003 0c-0.003 0-0.007 0-0.010 0-0.099 0-0.19-0.035-0.261-0.094l0.001 0.001c-0.067-0.056-0.109-0.139-0.109-0.232s0.042-0.177 0.109-0.232l0-0c0.070-0.058 0.161-0.093 0.261-0.093 0.004 0 0.007 0 0.011 0h-0.001c0.010 0 0.022 0 0.034 0 1.086 0 2.099-0.312 2.954-0.851l-0.023 0.014c0.91-0.565 1.641-1.339 2.14-2.258l0.016-0.032c0.527-0.968 0.791-2.234 0.791-3.369 0-0.014 0-0.031 0-0.047 0-1.139-0.293-2.21-0.808-3.141l0.017 0.033c-0.514-0.95-1.244-1.725-2.128-2.276l-0.025-0.015c-0.832-0.525-1.845-0.836-2.93-0.836-0.012 0-0.025 0-0.037 0h0.002c-0.003 0-0.006 0-0.009 0-0.101 0-0.193-0.039-0.262-0.102l0 0c-0.066-0.056-0.108-0.139-0.108-0.231 0-0.046 0.010-0.089 0.028-0.127l-0.001 0.002c0.020-0.040 0.047-0.073 0.081-0.099l0.001-0.001c0.070-0.057 0.16-0.091 0.259-0.091 0.002 0 0.005 0 0.007 0h0.004z"></path>
<path d="M25.714 4.167c0.116-0.055 0.226-0.123 0.327-0.201 0 0-0.119 0.078-0.327 0.201zM16.662 3.121c-7.014-2.874-11.495-4.846-14.45-0.93-2.455 3.252-2.85 8.367-1.268 15.041 1.422 6.001 4.39 10.059 6.674 12.252 2.23 2.137 5.163 2.881 7.098 1.521 0.944-0.665 1.5-1.278 2.367-2.873 0.446-0.825 0.822-1.781 1.079-2.785l0.019-0.088s-2.958 6.169-6.337 4.817c-3.38-1.351-7.207-5.709-8.787-13.943-1.106-5.761-0.422-13.014 2.874-13.857s7.689 1.44 10.732 2.281c3.042 0.841 5.493 1.099 6.929 0.591 0.82-0.294 1.521-0.625 2.183-1.014l-0.060 0.032c-0.858 0.43-3.496 1.23-9.052-1.046z"></path>
<path d="M30.352 1.858c-2.107-1.438-4-1.378-5.324-1.273-2.479 0.196-4.478 1.352-4.478 1.352s4.305-1.247 7.433 0.254c2.766 1.323 2.958 3.634 2.958 3.634s0.612 0.134 1.542 0.697c0.886 0.539 1.095 0.818 1.095 0.818s-0.685-3.764-3.225-5.482z"></path>
</symbol>
<symbol id="icon-place" viewBox="0 0 19 32">
<path d="M12.499 22.857l5.125-8.24c0.017-0.026 0.032-0.056 0.045-0.087l0.001-0.004c0.864-1.388 1.377-3.072 1.378-4.876v-0c0-5.162-4.199-9.36-9.362-9.36-5.16-0.001-9.359 4.197-9.359 9.36 0 1.719 0.478 3.403 1.381 4.877 0.013 0.031 0.026 0.058 0.042 0.083l-0.002-0.003 4.941 8.273c-3.859 0.573-6.391 2.186-6.391 4.147 0 2.489 4.030 4.365 9.374 4.365s9.374-1.877 9.374-4.365c0-2.003-2.594-3.623-6.55-4.171zM2.785 13.977c-0.785-1.226-1.251-2.722-1.252-4.326v-0c0-4.497 3.658-8.156 8.155-8.156s8.156 3.659 8.156 8.156c0 1.526-0.432 3.023-1.252 4.327-0.017 0.026-0.032 0.056-0.045 0.088l-0.001 0.004-5.475 8.803c-0.107 0.085-0.184 0.204-0.214 0.341l-0.001 0.004-1.305 2.099-6.716-11.237c-0.016-0.039-0.033-0.073-0.052-0.105l0.002 0.003zM9.674 30.188c-4.815 0-8.17-1.665-8.17-3.16 0-1.468 2.917-2.657 5.859-3.021l1.659 2.776c0.106 0.176 0.295 0.292 0.512 0.294h0.005c0.215-0 0.403-0.113 0.51-0.282l0.001-0.003 1.745-2.807c3.792 0.417 6.047 1.846 6.047 3.042 0 1.496-3.355 3.161-8.169 3.161z"></path>
<path d="M13.131 9.651c-0.002-1.908-1.549-3.455-3.457-3.457h-0c-1.908 0.002-3.455 1.548-3.457 3.457v0c0.002 1.908 1.548 3.455 3.457 3.457h0c1.908-0.002 3.455-1.549 3.457-3.457v-0zM7.423 9.651c0.002-1.242 1.008-2.249 2.25-2.252h0c1.243 0.001 2.251 1.009 2.252 2.252v0c-0.002 1.243-1.008 2.25-2.251 2.252h-0c-1.243-0.002-2.249-1.009-2.251-2.252v-0z"></path>
</symbol>
<symbol id="icon-implants" viewBox="0 0 25 32">
<path d="M15.308 4.207h-0.138c-1.224-0.33-2.286-0.9-3.182-1.66l0.012 0.010c-0.104-0.097-0.169-0.236-0.169-0.389 0-0.294 0.238-0.533 0.533-0.533 0.141 0 0.269 0.055 0.364 0.144l-0-0c0.759 0.639 1.67 1.123 2.67 1.392l0.049 0.011c0.222 0.067 0.381 0.269 0.381 0.509 0 0.289-0.231 0.524-0.519 0.531h-0.001v-0.015z"></path>
<path d="M16.573 18.982h-8.442c-2.614-0.013-4.775-1.94-5.152-4.45l-0.004-0.029-0.815-5.715c-0.059-0.367-0.093-0.789-0.093-1.22 0-0.973 0.173-1.906 0.489-2.769l-0.018 0.056c0.889-2.627 3.295-4.501 6.149-4.588l0.010-0c1.37 0.007 2.633 0.462 3.651 1.226l-0.016-0.011c1.002-0.753 2.265-1.209 3.634-1.214h0.001c2.886 0.076 5.311 1.967 6.181 4.57l0.014 0.047c0.299 0.808 0.471 1.74 0.471 2.713 0 0.431-0.034 0.853-0.099 1.266l0.006-0.046-0.815 5.715c-0.394 2.527-2.549 4.439-5.153 4.45h-0.001zM8.72 1.328c-2.412 0.091-4.429 1.679-5.158 3.857l-0.012 0.040c-0.252 0.693-0.398 1.493-0.398 2.327 0 0.385 0.031 0.763 0.091 1.131l-0.005-0.040 0.807 5.715c0.307 2.020 2.027 3.552 4.107 3.563h8.421c2.081-0.010 3.801-1.542 4.106-3.54l0.003-0.023 0.807-5.715c0.054-0.328 0.085-0.705 0.085-1.090 0-0.834-0.146-1.635-0.414-2.377l0.015 0.049c-0.741-2.22-2.762-3.809-5.167-3.897l-0.010-0c-1.263 0.008-2.415 0.475-3.3 1.241l0.006-0.005c-0.093 0.075-0.212 0.12-0.342 0.12s-0.249-0.045-0.343-0.121l0.001 0.001c-0.88-0.763-2.036-1.23-3.3-1.236h-0.001z"></path>
<path d="M12.363 31.663c0 0 0 0 0 0-0.249 0-0.458-0.172-0.515-0.404l-0.001-0.004c-0.008-0.036-0.013-0.076-0.013-0.118 0-0.25 0.171-0.461 0.402-0.521l0.004-0.001 0.473-0.109-4.581-0.175c-0.267-0.010-0.483-0.216-0.509-0.478l-0-0.002c-0.001-0.012-0.001-0.026-0.001-0.039 0-0.253 0.172-0.465 0.405-0.527l0.004-0.001 4.682-1.134-4.574-0.189c-0.266-0.013-0.48-0.217-0.509-0.477l-0-0.002c-0.002-0.015-0.002-0.033-0.002-0.051 0-0.25 0.173-0.46 0.406-0.516l0.004-0.001 4.668-1.105-4.573-0.189c-0.274-0.023-0.488-0.251-0.488-0.529 0-0.242 0.162-0.446 0.383-0.51l0.004-0.001 4.675-1.105-4.573-0.189c-0.285-0.010-0.512-0.244-0.512-0.53 0-0.25 0.173-0.46 0.407-0.516l0.004-0.001 4.668-1.105-4.573-0.189c-0.002 0-0.004 0-0.006 0-0.289 0-0.524-0.234-0.524-0.524 0-0.258 0.187-0.473 0.433-0.516l0.003-0 8.42-1.934c0.046-0.015 0.1-0.023 0.155-0.023 0.293 0 0.531 0.238 0.531 0.531 0 0.263-0.192 0.482-0.443 0.524l-0.003 0-4.668 1.105 4.573 0.189c0.284 0.006 0.512 0.238 0.512 0.523 0 0.116-0.038 0.224-0.102 0.31l0.001-0.001c-0.075 0.104-0.185 0.178-0.31 0.207l-4.668 1.105 4.573 0.189c0.282 0.013 0.506 0.246 0.506 0.53 0 0.251-0.174 0.461-0.408 0.516l-0.004 0.001-4.668 1.105 4.573 0.182c0.265 0.016 0.477 0.219 0.509 0.477l0 0.003c0.002 0.015 0.002 0.032 0.002 0.050 0 0.25-0.173 0.46-0.406 0.516l-0.004 0.001-4.675 1.105 4.573 0.189c0.285 0.010 0.512 0.244 0.512 0.53 0 0.25-0.173 0.46-0.407 0.516l-0.004 0.001-4.668 1.098 4.573 0.189c0.264 0.014 0.476 0.218 0.501 0.478l0 0.002c0.002 0.017 0.003 0.037 0.003 0.057 0 0.246-0.17 0.453-0.399 0.509l-0.004 0.001-4.217 0.96c-0.032 0.010-0.069 0.015-0.107 0.015-0.009 0-0.017-0-0.025-0.001l0.001 0zM20.099 28.5c-0.002 0-0.004 0-0.006 0-0.178 0-0.335-0.088-0.429-0.224l-0.001-0.002c-0.057-0.083-0.090-0.186-0.090-0.296 0-0.177 0.087-0.334 0.22-0.43l0.002-0.001 3.912-2.683c0.082-0.054 0.182-0.086 0.29-0.086 0.295 0 0.534 0.239 0.534 0.534 0 0.177-0.086 0.334-0.219 0.431l-0.002 0.001-3.912 2.676c-0.078 0.050-0.174 0.080-0.276 0.080-0.008 0-0.015-0-0.023-0l0.001 0zM20.143 22.603c-0.291-0.003-0.526-0.239-0.526-0.531 0-0.18 0.089-0.339 0.226-0.435l0.002-0.001 3.912-2.683c0.091-0.076 0.21-0.122 0.339-0.122 0.293 0 0.531 0.238 0.531 0.531 0 0.199-0.109 0.372-0.271 0.463l-0.003 0.001-3.904 2.683c-0.084 0.059-0.188 0.095-0.3 0.095-0.002 0-0.003 0-0.005-0h0zM4.634 28.5c-0.107 0-0.211-0.033-0.298-0.094l-3.905-2.683c-0.139-0.096-0.229-0.254-0.229-0.433 0-0.11 0.034-0.212 0.092-0.296l-0.001 0.002c0.097-0.137 0.256-0.226 0.435-0.226 0.109 0 0.21 0.033 0.295 0.089l-0.002-0.001 3.911 2.683c0.136 0.099 0.224 0.258 0.224 0.437 0 0.108-0.032 0.208-0.086 0.293l0.001-0.002c-0.098 0.139-0.256 0.229-0.436 0.233h-0.001zM4.59 22.603c-0.001 0-0.003 0-0.004 0-0.11 0-0.212-0.036-0.295-0.096l0.001 0.001-3.912-2.683c-0.137-0.097-0.226-0.256-0.226-0.435 0-0.109 0.033-0.21 0.089-0.295l-0.001 0.002c0.096-0.139 0.254-0.229 0.433-0.229 0.11 0 0.212 0.034 0.296 0.092l-0.002-0.001 3.911 2.683c0.139 0.097 0.229 0.256 0.229 0.436 0 0.292-0.235 0.528-0.526 0.531h-0l0.007-0.007z"></path>
</symbol>
<symbol id="icon-hygiene" viewBox="0 0 31 32">
<path d="M6.002 31.967c-0.717-0.008-1.343-0.391-1.692-0.962l-0.005-0.009c-1.631-2.564-1.844-4.525-2.087-6.796-0.088-0.872-0.174-1.541-0.274-2.205l0.031 0.251c-0.867-1.305-1.451-2.869-1.627-4.555l-0.004-0.044c-0.183-1.925-0.183-3.189-0.183-3.24 0-4.077 3.056-7.391 6.81-7.391 0.007-0 0.015-0.001 0.024-0.001 0.296 0 0.537 0.24 0.537 0.537s-0.24 0.537-0.537 0.537c-0.008 0-0.016-0-0.025-0.001l0.001 0c-3.166 0-5.738 2.836-5.738 6.318 0 0 0 1.271 0.176 3.137 0.147 1.577 0.675 3.007 1.49 4.229l-0.021-0.033c0.045 0.062 0.073 0.136 0.081 0.213 0.118 0.735 0.191 1.469 0.264 2.116 0.235 2.204 0.426 3.982 1.925 6.341 0.158 0.282 0.456 0.47 0.797 0.47 0.090 0 0.178-0.013 0.26-0.038l-0.006 0.002c0.432-0.15 0.737-0.554 0.737-1.029 0-0.026-0.001-0.051-0.003-0.077l0 0.003v-2.725c-0.007-0.085-0.011-0.185-0.011-0.285 0-2.053 1.664-3.718 3.717-3.719h0c0 0 0.001 0 0.001 0 2.053 0 3.717 1.664 3.717 3.717 0 0.101-0.004 0.201-0.012 0.3l0.001-0.013v2.726c-0.002 0.022-0.002 0.047-0.002 0.073 0 0.475 0.305 0.879 0.73 1.027l0.008 0.002c0.075 0.022 0.161 0.035 0.25 0.035 0.342 0 0.64-0.187 0.798-0.464l0.002-0.005c0.716-1.081 1.258-2.346 1.552-3.704l0.013-0.073c0.052-0.247 0.267-0.429 0.525-0.429 0.038 0 0.074 0.004 0.11 0.011l-0.003-0.001c0.247 0.054 0.43 0.272 0.43 0.531 0 0.038-0.004 0.075-0.011 0.111l0.001-0.004c-0.334 1.565-0.93 2.948-1.747 4.173l0.027-0.044c-0.351 0.583-0.98 0.967-1.699 0.967-0.196 0-0.385-0.028-0.563-0.081l0.014 0.004c-0.891-0.297-1.521-1.122-1.521-2.096 0-0.012 0-0.025 0-0.037l-0 0.002v-2.725c0.010-0.085 0.015-0.183 0.015-0.283 0-1.465-1.187-2.652-2.652-2.652-1.173 0-2.169 0.762-2.518 1.818l-0.005 0.019c-0.115 0.354-0.154 0.728-0.115 1.097v2.726c0 0.010 0 0.023 0 0.035 0 0.973-0.631 1.799-1.506 2.091l-0.016 0.005c-0.135 0.046-0.292 0.080-0.454 0.095l-0.009 0.001zM30.482 23.033c-0.194-0.001-0.364-0.102-0.462-0.255l-0.001-0.002-12.556-20.991c-0.1-0.16-0.258-0.276-0.441-0.323-0.054-0.016-0.117-0.025-0.181-0.025-0.135 0-0.26 0.039-0.366 0.107l0.003-0.002c-0.162 0.095-0.28 0.251-0.322 0.436l-0.001 0.005c-0.015 0.054-0.024 0.116-0.024 0.18 0 0.135 0.039 0.261 0.107 0.367l-0.002-0.003 10.932 18.272c0.037 0.071 0.059 0.155 0.059 0.244 0 0.296-0.24 0.537-0.537 0.537-0.182 0-0.343-0.090-0.44-0.229l-0.001-0.002-10.939-18.279c-0.158-0.261-0.252-0.577-0.252-0.914 0-0.648 0.345-1.215 0.861-1.528l0.008-0.004c0.264-0.163 0.583-0.26 0.925-0.26 0.647 0 1.213 0.345 1.524 0.861l0.004 0.008 12.556 20.991c0.050 0.079 0.079 0.176 0.079 0.279 0 0.292-0.237 0.529-0.529 0.529-0.002 0-0.004 0-0.006-0h0z"></path>
<path d="M18.492 25.12c-0.001 0-0.002 0-0.004 0-0.174 0-0.328-0.087-0.421-0.219l-0.001-0.002c-0.068-0.088-0.108-0.2-0.108-0.321 0-0.075 0.016-0.146 0.044-0.211l-0.001 0.003c1.602-3.769-2.483-6.51-2.66-6.613-0.141-0.090-0.235-0.242-0.243-0.417l-0-0.001c-0-0.007-0.001-0.016-0.001-0.024 0-0.17 0.077-0.322 0.198-0.423l0.001-0.001c1.094-0.874 1.116-1.69 0.999-2.153-3.946 1.55-7.531-2.021-7.685-2.204-0.1-0.096-0.162-0.231-0.162-0.381 0-0.251 0.174-0.46 0.408-0.515l0.004-0.001c2.417-0.61 3.38-1.235 3.762-1.624-2.652-0.485-4.21-4.151-4.276-4.32-0.027-0.061-0.043-0.133-0.043-0.208 0-0.145 0.059-0.277 0.153-0.372l-0 0c0.093-0.1 0.225-0.163 0.373-0.163 0.070 0 0.136 0.014 0.197 0.040l-0.003-0.001c0.139 0.044 3.446 1.205 7.090-1.558 0.087-0.062 0.195-0.098 0.312-0.098 0.17 0 0.322 0.078 0.422 0.201l0.001 0.001c0.063 0.087 0.101 0.196 0.101 0.313 0 0.17-0.079 0.322-0.203 0.42l-0.001 0.001c-1.573 1.274-3.599 2.046-5.805 2.046-0.399 0-0.791-0.025-1.176-0.074l0.046 0.005c0.661 1.139 1.925 2.843 3.527 2.725 0.009-0.001 0.020-0.001 0.031-0.001 0.239 0 0.441 0.156 0.511 0.372l0.001 0.004c0.021 0.085 0.034 0.183 0.034 0.284 0 0.241-0.070 0.465-0.191 0.654l0.003-0.005c-0.455 0.815-1.675 1.521-3.637 2.109 1.205 0.918 3.725 2.38 6.216 1.124 0.071-0.038 0.155-0.060 0.244-0.060 0.179 0 0.337 0.090 0.431 0.228l0.001 0.002c0.257 0.414 0.409 0.916 0.409 1.454 0 0.833-0.364 1.58-0.943 2.092l-0.003 0.003c1.139 0.94 3.615 3.402 2.828 6.613 1.543-0.382 4.746-1.543 5.878-4.732 0.077-0.208 0.274-0.354 0.505-0.354 0.064 0 0.125 0.011 0.182 0.032l-0.004-0.001c0.209 0.079 0.355 0.277 0.355 0.51 0 0.065-0.011 0.127-0.032 0.185l0.001-0.004c-1.749 4.871-7.399 5.569-7.641 5.598l-0.022 0.044zM4.342 13.328c-0 0-0 0-0 0-0.292 0-0.529-0.237-0.529-0.529 0-0.003 0-0.005 0-0.008v0-0.602c-0.002-0.019-0.004-0.040-0.004-0.062 0-0.296 0.24-0.536 0.536-0.536s0.536 0.24 0.536 0.536c0 0.022-0.001 0.043-0.004 0.065l0-0.003v0.603c0 0.002 0 0.005 0 0.008 0 0.292-0.237 0.529-0.529 0.529-0.003 0-0.006-0-0.009-0h0zM4.342 16.362c-0 0-0 0-0 0-0.292 0-0.529-0.237-0.529-0.529 0-0.003 0-0.005 0-0.008v0-0.602c-0.002-0.019-0.004-0.040-0.004-0.062 0-0.296 0.24-0.536 0.536-0.536s0.536 0.24 0.536 0.536c0 0.022-0.001 0.043-0.004 0.065l0-0.003v0.603c0 0.002 0 0.005 0 0.007 0 0.292-0.237 0.529-0.529 0.529-0.003 0-0.005-0-0.008-0h0zM6.163 14.54h-0.602c-0.020 0.003-0.043 0.004-0.066 0.004-0.296 0-0.537-0.24-0.537-0.537s0.24-0.537 0.537-0.537c0.023 0 0.046 0.002 0.069 0.004l-0.003-0h0.602c0.019-0.002 0.042-0.004 0.065-0.004 0.296 0 0.535 0.24 0.535 0.535 0 0.080-0.018 0.156-0.049 0.224l0.001-0.003c-0.086 0.188-0.273 0.317-0.489 0.317-0.022 0-0.044-0.001-0.065-0.004l0.003 0zM3.129 14.54h-0.603c-0.019 0.002-0.040 0.004-0.062 0.004-0.296 0-0.537-0.24-0.537-0.537 0-0.159 0.069-0.302 0.179-0.401l0.001-0c0.094-0.084 0.219-0.135 0.355-0.135 0.022 0 0.045 0.001 0.066 0.004l-0.003-0h0.603c0.019-0.002 0.041-0.004 0.063-0.004 0.296 0 0.535 0.24 0.535 0.535 0 0 0 0.001 0 0.001v-0c-0 0.296-0.24 0.536-0.537 0.536-0.022 0-0.043-0.001-0.064-0.004l0.003 0z"></path>
</symbol>
<symbol id="icon-doc" viewBox="0 0 23 32">
<path d="M11.239 20.103c-6.118 0-11.095 4.978-11.095 11.096 0 0.299 0.241 0.54 0.539 0.54h21.112c0 0 0.001 0 0.001 0 0.298 0 0.539-0.241 0.539-0.539 0-0 0-0.001 0-0.001v0c0-6.118-4.977-11.096-11.096-11.096zM1.237 30.658c0.281-5.273 4.66-9.477 10.002-9.477s9.721 4.204 10.002 9.477h-20.004zM11.056 19.116c3.539 0 6.419-2.88 6.419-6.421 0-1.251-0.361-2.457-1.040-3.499v-7.959c0-0 0-0.001 0-0.001 0-0.298-0.241-0.539-0.539-0.539-0 0-0.001 0-0.001 0h-9.678c-0 0-0.001 0-0.001 0-0.298 0-0.539 0.241-0.539 0.539 0 0 0 0 0 0v0 7.956c-0.653 0.986-1.041 2.196-1.041 3.497 0 0.002 0 0.004 0 0.006v-0c0 3.54 2.88 6.42 6.42 6.42zM6.757 1.777h8.599v7.175h-8.599v-7.175zM6.43 10.032h9.255c0.466 0.807 0.711 1.721 0.711 2.664 0 2.946-2.395 5.342-5.339 5.342-2.948-0.004-5.337-2.393-5.34-5.341v-0c0-0.942 0.246-1.855 0.714-2.664z"></path>
<path d="M12.937 4.885h-1.341v-1.343c0-0.298-0.242-0.539-0.54-0.539s-0.54 0.242-0.54 0.539v0 1.343h-1.342c-0.298 0-0.54 0.242-0.54 0.54s0.242 0.54 0.54 0.54v0h1.342v1.341c0 0.298 0.242 0.54 0.54 0.54s0.54-0.242 0.54-0.54v0-1.34h1.341c0.298 0 0.54-0.242 0.54-0.54s-0.242-0.54-0.54-0.54v0z"></path>
</symbol>
<symbol id="icon-crowns" viewBox="0 0 29 32">
<path d="M17.781 4.596h-0.138c-1.427-0.38-2.667-1.044-3.71-1.932l0.013 0.011c-0.111-0.098-0.181-0.24-0.181-0.399 0-0.293 0.237-0.53 0.53-0.53 0.148 0 0.281 0.060 0.377 0.158l0 0c0.906 0.751 1.991 1.321 3.18 1.639l0.059 0.013c0.221 0.067 0.38 0.27 0.38 0.509 0 0.289-0.23 0.524-0.518 0.531h0.007z"></path>
<path d="M25.705 12.229h-0.036c-0.274-0.023-0.489-0.251-0.489-0.529 0-0.013 0-0.027 0.001-0.040l-0 0.002c0.124-1.703 0.124-2.802 0.124-2.816 0-4.213-3.012-7.647-6.709-7.647-1.509 0.002-2.889 0.552-3.952 1.462l0.008-0.007c-0.093 0.075-0.212 0.12-0.342 0.12s-0.249-0.045-0.343-0.121l0.001 0.001c-1.055-0.903-2.435-1.454-3.944-1.456h-0c-3.697 0-6.709 3.435-6.709 7.647 0 0 0 1.048 0.116 2.678 0.004 0.025 0.007 0.054 0.007 0.084 0 0.293-0.238 0.531-0.531 0.531s-0.531-0.238-0.531-0.531c0-0.004 0-0.008 0-0.012v0.001c-0.124-1.666-0.124-2.707-0.124-2.751 0-4.802 3.486-8.732 7.771-8.732 1.549 0.004 3.055 0.515 4.286 1.456 1.175-0.904 2.666-1.451 4.285-1.456h0.001c4.286 0 7.771 3.9 7.771 8.732 0 0.044 0 1.142-0.131 2.91-0.033 0.267-0.258 0.472-0.531 0.473h-0zM19.753 31.875c-0.208-0.002-0.408-0.031-0.598-0.084l0.016 0.004c-1.013-0.325-1.733-1.259-1.733-2.361 0-0.030 0.001-0.059 0.002-0.089l-0 0.004v-3.252c0-1.994-1.405-3.638-3.129-3.638s-3.129 1.616-3.129 3.638v3.253c0.001 0.024 0.001 0.053 0.001 0.081 0 1.1-0.716 2.033-1.708 2.358l-0.018 0.005c-0.174 0.050-0.373 0.078-0.58 0.078-0.812 0-1.52-0.443-1.896-1.101l-0.006-0.011c-2.576-4.17-3.733-9.634-4.242-13.476-0.004-0.023-0.006-0.050-0.006-0.077 0-0.13 0.049-0.248 0.131-0.338l-0 0c0.098-0.112 0.241-0.182 0.4-0.182h22.106c0 0 0 0 0 0 0.16 0 0.303 0.070 0.4 0.182l0.001 0.001c0.098 0.092 0.16 0.222 0.16 0.367 0 0.030-0.003 0.059-0.007 0.087l0-0.003c-0.509 3.849-1.666 9.307-4.242 13.476-0.395 0.65-1.099 1.077-1.903 1.077-0.006 0-0.013-0-0.019-0h0.001zM14.311 21.427c2.314 0 4.191 2.096 4.191 4.671v3.253c-0.004 0.040-0.006 0.086-0.006 0.133 0 0.614 0.398 1.135 0.95 1.319l0.010 0.003c0.090 0.026 0.193 0.041 0.299 0.041 0.428 0 0.799-0.241 0.985-0.595l0.003-0.006c2.351-3.806 3.471-8.732 4.010-12.465h-20.883c0.538 3.697 1.659 8.659 4.009 12.465 0.189 0.36 0.561 0.601 0.988 0.601 0.107 0 0.21-0.015 0.307-0.043l-0.008 0.002c0.562-0.187 0.96-0.708 0.96-1.321 0-0.047-0.002-0.094-0.007-0.14l0 0.006v-3.252c0-2.561 1.877-4.657 4.191-4.657v-0.015z"></path>
<path d="M20.219 14.98c-0.211-0-0.393-0.124-0.479-0.302l-0.001-0.003c-0.98-2.055-3.041-3.45-5.428-3.45s-4.448 1.395-5.413 3.414l-0.016 0.036c-0.089 0.182-0.273 0.306-0.485 0.306-0.032 0-0.063-0.003-0.093-0.008l0.003 0c-2.219-0.4-5.937-1.368-5.937-3.406 0-2.561 6.010-3.9 11.94-3.9s11.941 1.339 11.941 3.9c0 2.037-3.718 3.005-5.937 3.406l-0.095 0.007zM14.311 10.162c2.66 0.008 4.975 1.48 6.181 3.652l0.018 0.036c3.223-0.625 4.679-1.622 4.679-2.285 0-1.186-4.141-2.838-10.878-2.838s-10.915 1.652-10.915 2.838c0 0.669 1.455 1.659 4.679 2.285 1.228-2.215 3.552-3.689 6.22-3.689 0.006 0 0.011 0 0.017 0h-0.001z"></path>
<path d="M20.823 17.759h-13.098c-0.289 0-0.524-0.234-0.524-0.524 0-0 0-0 0-0v0c0.033-3.877 3.184-7.007 7.065-7.007s7.032 3.13 7.065 7.004l0 0.003c0 0 0 0 0 0 0 0.284-0.226 0.515-0.508 0.523l-0.001 0zM8.293 16.704h11.97c-0.291-3.074-2.859-5.46-5.985-5.46s-5.694 2.386-5.983 5.436l-0.002 0.024zM26.055 14.979c-0.177-0.002-0.334-0.087-0.435-0.217l-0.001-0.001c-0.058-0.084-0.093-0.188-0.093-0.3 0-0.175 0.084-0.33 0.215-0.426l0.001-0.001 1.754-1.259c0.078-0.048 0.173-0.076 0.274-0.076 0.293 0 0.531 0.238 0.531 0.531 0 0.162-0.072 0.306-0.186 0.404l-0.001 0.001-1.754 1.259c-0.084 0.055-0.186 0.087-0.296 0.087-0.003 0-0.007-0-0.010-0h0zM27.801 16.901c-0 0-0.001 0-0.001 0-0.108 0-0.208-0.033-0.291-0.088l0.002 0.001-0.67-0.444c-0.127-0.098-0.208-0.25-0.208-0.421 0-0.293 0.238-0.531 0.531-0.531 0.098 0 0.19 0.027 0.269 0.073l-0.002-0.001 0.662 0.444c0.149 0.094 0.247 0.258 0.247 0.445 0 0.289-0.234 0.524-0.524 0.524-0.005 0-0.010-0-0.015-0l0.001 0zM2.566 14.979c-0.115-0.003-0.221-0.040-0.307-0.103l0.002 0.001-1.754-1.258c-0.113-0.098-0.185-0.242-0.185-0.403 0-0.293 0.238-0.531 0.531-0.531 0.101 0 0.195 0.028 0.275 0.077l-0.002-0.001 1.754 1.259c0.132 0.098 0.216 0.253 0.216 0.428 0 0.112-0.035 0.216-0.094 0.301l0.001-0.002c-0.099 0.137-0.257 0.227-0.435 0.233l-0.001 0zM0.82 16.901c-0.003 0-0.006 0-0.009 0-0.181 0-0.34-0.092-0.434-0.231l-0.001-0.002c-0.054-0.082-0.086-0.182-0.086-0.289 0-0.181 0.091-0.341 0.229-0.437l0.002-0.001 0.669-0.444c0.075-0.044 0.166-0.069 0.263-0.069 0.293 0 0.531 0.238 0.531 0.531 0 0.169-0.079 0.32-0.203 0.418l-0.001 0.001-0.67 0.444c-0.079 0.050-0.175 0.080-0.278 0.080-0.004 0-0.009-0-0.013-0h0.001z"></path>
</symbol>
<symbol id="icon-child-dent" viewBox="0 0 35 32">
<path d="M20.613 7.686c-0.022 0.004-0.047 0.006-0.073 0.006s-0.051-0.002-0.076-0.006l0.003 0c-1.375-0.362-2.569-1.002-3.571-1.859l0.012 0.010c-0.125-0.104-0.204-0.26-0.204-0.434 0-0.311 0.252-0.563 0.563-0.563 0.163 0 0.309 0.069 0.412 0.179l0 0c0.864 0.703 1.896 1.236 3.026 1.528l0.056 0.012c0.234 0.072 0.401 0.286 0.401 0.539 0 0.306-0.244 0.554-0.547 0.562l-0.001 0v0.023z"></path>
<path d="M22.5 31.68c-0.003 0-0.007 0-0.011 0-0.202 0-0.397-0.028-0.582-0.081l0.015 0.004c-0.987-0.32-1.688-1.231-1.688-2.306 0-0.032 0.001-0.063 0.002-0.094l-0 0.005v-3.081c0.004-0.060 0.006-0.131 0.006-0.202 0-1.678-1.293-3.055-2.938-3.187l-0.011-0.001c-1.618 0-2.942 1.541-2.942 3.389v3.081c0.001 0.027 0.002 0.058 0.002 0.089 0 1.075-0.701 1.986-1.672 2.301l-0.017 0.005c-0.169 0.048-0.363 0.075-0.563 0.075-0.794 0-1.487-0.432-1.857-1.074l-0.005-0.010c-4.499-7.279-4.53-18.394-4.53-18.864 0-4.621 3.358-8.38 7.487-8.38 1.478 0.003 2.916 0.484 4.098 1.371 1.128-0.852 2.552-1.367 4.097-1.371h0.001c4.128 0 7.486 3.759 7.486 8.38 0 0.47 0 11.554-4.529 18.865-0.377 0.645-1.062 1.074-1.847 1.086l-0.002 0zM17.293 21.582c2.241 0 4.067 2.026 4.067 4.514v3.081c-0.003 0.030-0.004 0.066-0.004 0.101 0 0.56 0.362 1.036 0.865 1.205l0.009 0.003c0.080 0.023 0.173 0.037 0.268 0.037 0.389 0 0.727-0.222 0.893-0.547l0.003-0.006c4.329-7.002 4.36-18.163 4.36-18.271 0-4.005-2.858-7.256-6.363-7.256-1.371 0.006-2.696 0.501-3.736 1.394-0.098 0.079-0.224 0.127-0.362 0.127s-0.264-0.048-0.363-0.128l0.001 0.001c-0.997-0.861-2.304-1.388-3.734-1.394h-0.001c-3.505 0-6.362 3.251-6.362 7.256 0 0.107 0 11.269 4.36 18.271 0.171 0.33 0.509 0.551 0.899 0.551 0.094 0 0.185-0.013 0.271-0.037l-0.007 0.002c0.516-0.169 0.882-0.647 0.882-1.21 0-0.035-0.001-0.070-0.004-0.105l0 0.005v-3.081c0-2.511 1.818-4.537 4.059-4.537v0.023z"></path>
<path d="M17.292 17.561c-5.961 0-17.23-0.77-17.23-3.636 0-0.462 0-1.864 6.163-2.858 0.029-0.006 0.063-0.009 0.097-0.009 0.275 0 0.503 0.203 0.541 0.468l0 0.003c0.005 0.028 0.008 0.060 0.008 0.092 0 0.278-0.201 0.509-0.466 0.554l-0.003 0c-4.306 0.693-5.184 1.541-5.184 1.749 0 0.855 5.692 2.511 16.114 2.511s16.114-1.656 16.114-2.51c0-0.193-0.878-1.055-5.184-1.749-0.274-0.041-0.481-0.275-0.481-0.557 0-0.311 0.252-0.563 0.563-0.563 0.036 0 0.072 0.003 0.107 0.010l-0.004-0.001c6.124 0.995 6.124 2.396 6.124 2.859-0.038 2.873-11.315 3.636-17.277 3.636z"></path>
<path d="M6.062 25.179c-0.021 0.001-0.046 0.002-0.071 0.002-0.342 0-0.653-0.133-0.884-0.349l0.001 0.001c-0.501-0.501-0.886-1.579 1.54-5.207 0.1-0.167 0.279-0.277 0.485-0.277 0.311 0 0.563 0.252 0.563 0.563 0 0.124-0.040 0.239-0.108 0.332l0.001-0.002c-1.81 2.727-1.771 3.69-1.663 3.798 0.601 0.609 5.8-2.242 13.172-9.613s10.214-12.571 9.613-13.172c-0.146-0.147-1.671-0.062-5.9 3.165-0.085 0.054-0.189 0.087-0.3 0.087-0.311 0-0.563-0.252-0.563-0.563 0-0.161 0.068-0.307 0.177-0.409l0-0c5.924-4.529 7.017-3.435 7.379-3.081 2.034 2.034-5.392 10.537-9.613 14.759-3.751 3.728-10.822 9.967-13.827 9.967z"></path>
<path d="M28.507 25.21c-0.824 0-2.218-0.501-4.729-2.226-3.363-2.425-6.322-4.974-9.047-7.753l-0.011-0.011c-2.785-2.737-5.334-5.693-7.625-8.849l-0.14-0.202c-2.758-4.013-2.38-5.177-1.849-5.708 0.362-0.362 1.455-1.455 7.379 3.081 0.159 0.101 0.263 0.276 0.263 0.476 0 0.311-0.252 0.563-0.563 0.563-0.149 0-0.285-0.058-0.386-0.153l0 0c-4.221-3.227-5.746-3.32-5.9-3.166s-0.138 1.202 1.98 4.275c2.389 3.301 4.898 6.207 7.63 8.886l0.011 0.011c7.371 7.372 12.563 10.222 13.164 9.613 0.108-0.108 0.146-1.071-1.656-3.798-0.082-0.097-0.132-0.224-0.132-0.362 0-0.278 0.203-0.509 0.468-0.554l0.003-0c0.027-0.005 0.059-0.007 0.091-0.007 0.218 0 0.406 0.123 0.5 0.304l0.001 0.003c2.403 3.628 2.018 4.707 1.541 5.207-0.229 0.231-0.546 0.373-0.896 0.373-0.034 0-0.068-0.001-0.102-0.004l0.004 0z"></path>
</symbol>
<symbol id="icon-chear" viewBox="0 0 24 32">
<path d="M23.403 15.766h-3.524l-1.365-5.67c-0.055-0.223-0.253-0.385-0.49-0.386h-11.131l-1.794-9.098c-0.047-0.234-0.251-0.407-0.495-0.407-0.033 0-0.064 0.003-0.095 0.009l0.003-0.001-3.366 0.629c-0.236 0.045-0.412 0.25-0.412 0.495 0 0.033 0.003 0.065 0.009 0.096l-0-0.003 3.432 18.381c0.045 0.236 0.25 0.411 0.495 0.411 0 0 0 0 0.001 0h-0c0.054-0.001 0.106-0.010 0.154-0.027l-0.003 0.001h9.654v7.187h-6.479c-0.278 0-0.504 0.226-0.504 0.504v3.35c0 0.278 0.226 0.504 0.504 0.504h13.964c0.278 0 0.504-0.226 0.504-0.504v-3.35c0-0.278-0.226-0.504-0.504-0.504v0h-6.477v-7.187h7.92c0.278 0 0.504-0.226 0.504-0.504v0-3.424c0-0.278-0.226-0.504-0.504-0.504v0zM21.456 30.736h-12.956v-2.342h12.956v2.342zM17.628 10.72l1.214 5.046h-10.754l-0.995-5.047h10.535zM1.827 1.741l2.379-0.444 2.925 14.828-2.156 2.477-3.148-16.86zM22.899 19.189h-17.099l2.102-2.416h14.996v2.416z"></path>
</symbol>
<symbol id="icon-braces" viewBox="0 0 48 32">
<path d="M15.773 12.937h-6.999c-0.001 0-0.001 0-0.002 0-1.675 0-3.041-1.326-3.103-2.986l-0-0.006v-0.207c-0.001-5.176 2.949-9.473 6.572-9.473s6.585 4.255 6.585 9.473v0.207c-0.062 1.649-1.4 2.965-3.052 2.992l-0.003 0zM12.273 1.777c-2.795 0-5.062 3.571-5.062 7.961v0.186c0.029 0.835 0.712 1.501 1.552 1.501 0.004 0 0.008 0 0.012-0h6.998c0.003 0 0.007 0 0.011 0 0.842 0 1.528-0.665 1.562-1.498l0-0.003v-0.186c0-4.389-2.257-7.961-5.073-7.961z"></path>
<path d="M13.464 9.882h-2.371c0 0-0 0-0 0-0.779 0-1.412-0.629-1.418-1.407v-2.372c0.006-0.781 0.637-1.412 1.418-1.418h2.371c0.779 0.006 1.408 0.638 1.408 1.418 0 0 0 0 0 0v0 2.371c-0 0.777-0.631 1.407-1.408 1.407v0zM11.187 8.371h2.174v-2.175h-2.175v2.175z"></path>
<path d="M12.273 6.196c0 0 0 0 0 0-0.417 0-0.756-0.338-0.756-0.755v-0.86c0-0.418 0.339-0.756 0.756-0.756s0.756 0.339 0.756 0.756v0 0.89c-0.017 0.404-0.348 0.725-0.755 0.725-0 0-0.001 0-0.001 0h0zM12.273 10.431c-0.418 0-0.756-0.339-0.756-0.756v0-0.548c0-0.418 0.339-0.756 0.756-0.756s0.756 0.339 0.756 0.756v0 0.549c-0 0.417-0.339 0.756-0.756 0.756v0zM27.42 12.937h-6.999c-0.001 0-0.001 0-0.002 0-1.675 0-3.041-1.326-3.103-2.986l-0-0.006v-0.207c0-5.176 2.95-9.473 6.574-9.473s6.584 4.255 6.584 9.473v0.217c-0.067 1.644-1.404 2.955-3.052 2.982l-0.003 0zM23.92 1.777c-2.795 0-5.062 3.571-5.062 7.961v0.186c0.029 0.835 0.712 1.501 1.552 1.501 0.004 0 0.008 0 0.012-0h6.998c0.003 0 0.007 0 0.011 0 0.842 0 1.528-0.665 1.562-1.498l0-0.003v-0.186c0-4.389-2.277-7.961-5.073-7.961z"></path>
<path d="M25.111 9.882h-2.371c-0.010 0-0.021 0-0.032 0-0.777 0-1.407-0.63-1.407-1.407 0-0 0-0 0-0v0-2.371c0 0 0-0 0-0 0-0.78 0.629-1.412 1.407-1.418h2.371c0.774 0.011 1.398 0.642 1.398 1.418 0 0 0 0 0 0v0 2.371c-0 0.763-0.607 1.385-1.365 1.407l-0.002 0zM22.833 8.371h2.175v-2.175h-2.175v2.175z"></path>
<path d="M23.92 6.196c-0.417-0-0.755-0.338-0.756-0.755v-0.86c0.018-0.403 0.35-0.723 0.756-0.723s0.737 0.32 0.756 0.722l0 0.002v0.89c-0.017 0.404-0.348 0.725-0.755 0.725-0 0-0 0-0.001 0h0zM23.92 10.431c-0.417-0-0.756-0.339-0.756-0.756v0-0.548c0.018-0.403 0.35-0.723 0.756-0.723s0.737 0.32 0.756 0.722l0 0.002v0.549c-0 0.417-0.338 0.755-0.756 0.756h-0zM39.066 12.937h-6.999c-0.001 0-0.001 0-0.002 0-1.675 0-3.041-1.326-3.103-2.986l-0-0.006v-0.207c0-5.176 2.951-9.473 6.574-9.473s6.584 4.255 6.584 9.473v0.217c-0.067 1.644-1.404 2.955-3.052 2.982l-0.003 0zM35.567 1.777c-2.795 0-5.062 3.571-5.062 7.961v0.186c0.029 0.835 0.712 1.501 1.552 1.501 0.004 0 0.008-0 0.012-0h6.997c0.003 0 0.007 0 0.011 0 0.842 0 1.528-0.665 1.562-1.498l0-0.003v-0.186c0-4.389-2.278-7.961-5.073-7.961z"></path>
<path d="M36.757 9.882h-2.371c-0.777-0-1.407-0.63-1.407-1.407v-2.371c0 0 0-0 0-0 0-0.78 0.629-1.412 1.407-1.418h2.371c0.779 0.006 1.407 0.639 1.407 1.418 0 0 0 0 0 0v0 2.371c-0 0.777-0.631 1.407-1.408 1.407v0zM34.48 8.371h2.174v-2.175h-2.175v2.175z"></path>
<path d="M35.567 6.196c-0.417-0-0.755-0.338-0.756-0.755v-0.86c0.018-0.403 0.35-0.723 0.756-0.723s0.737 0.32 0.756 0.722l0 0.002v0.89c-0.017 0.404-0.348 0.725-0.755 0.725-0 0-0 0-0.001 0h0zM35.567 10.431c-0.417-0-0.756-0.339-0.756-0.756v0-0.548c0.018-0.403 0.35-0.723 0.756-0.723s0.737 0.32 0.756 0.722l0 0.002v0.549c-0 0.417-0.338 0.755-0.756 0.756h-0z"></path>
<path d="M25.763 8.029c-0.205-0.003-0.391-0.085-0.528-0.217l0 0c-0.139-0.137-0.226-0.327-0.228-0.538v-1.037h-2.175v1.035c-0.003 0.209-0.085 0.397-0.217 0.539l0-0c-0.133 0.135-0.318 0.219-0.523 0.219-0.009 0-0.018-0-0.028-0.001l0.001 0c-2.795 0-5.497-0.156-8.012-0.353-0.39-0.033-0.694-0.358-0.694-0.754 0-0.001 0-0.001 0-0.002v0-0.724h-2.175v0.362c0 0.005 0 0.011 0 0.017 0 0.412-0.334 0.745-0.745 0.745-0.033 0-0.065-0.002-0.096-0.006l0.004 0c-9.836-1.191-9.836-3.023-9.836-3.707 0.048-0.376 0.366-0.663 0.751-0.663s0.702 0.287 0.75 0.659l0 0.004c0.176 0.352 1.874 1.367 7.724 2.133 0.169-0.601 0.711-1.035 1.356-1.036h2.371c0.779 0.006 1.408 0.638 1.408 1.418 0 0 0 0 0 0v0 0.124c2.071 0.145 4.214 0.238 6.46 0.279v-0.404c0 0 0-0 0-0 0-0.78 0.629-1.412 1.407-1.418h2.371c0.754 0.029 1.355 0.641 1.366 1.397v0.405c2.236 0 4.41-0.135 6.46-0.279v-0.124c0 0 0-0 0-0 0-0.78 0.629-1.412 1.407-1.418h2.371c0.643 0.005 1.184 0.436 1.353 1.025l0.002 0.010c5.912-0.776 7.579-1.8 7.724-2.142 0-0 0-0.001 0-0.001 0-0.406 0.329-0.735 0.735-0.735 0.004 0 0.007 0 0.011 0h-0.001c0.419 0.005 0.756 0.346 0.756 0.766 0 0.004-0 0.007-0 0.011v-0.001c0 0.684 0 2.516-9.835 3.706-0.025 0.003-0.054 0.005-0.084 0.005-0.421 0-0.763-0.34-0.766-0.76v-0.362h-2.174v0.725c0 0.001 0 0.001 0 0.002 0 0.396-0.304 0.72-0.691 0.754l-0.003 0c-2.516 0.196-5.176 0.311-8.012 0.352l0.031-0.010zM12.273 31.353c-3.623 0-6.575-4.255-6.575-9.472v-0.207c0.063-1.666 1.428-2.992 3.103-2.992 0.001 0 0.002 0 0.003 0h6.998c0.001 0 0.002 0 0.002 0 1.672 0 3.035 1.321 3.103 2.976l0 0.006v0.217c-0.051 5.217-3.002 9.472-6.636 9.472zM8.774 20.193c-0.003-0-0.007-0-0.011-0-0.839 0-1.523 0.666-1.552 1.499l-0 0.003v0.187c0 4.389 2.267 7.961 5.062 7.961s5.073-3.571 5.073-7.961v-0.186c-0.035-0.836-0.721-1.501-1.562-1.501-0.004 0-0.008 0-0.012 0h-6.998z"></path>
<path d="M13.464 26.923h-2.371c0 0-0 0-0 0-0.78 0-1.412-0.629-1.418-1.407v-2.371c0.006-0.779 0.639-1.408 1.418-1.408 0 0 0 0 0 0h2.371c0.778 0 1.408 0.63 1.408 1.408v0 2.371c0 0.778-0.63 1.408-1.408 1.408v0zM11.187 25.422h2.174v-2.175h-2.175v2.175z"></path>
<path d="M12.273 27.793c-0.417-0-0.756-0.339-0.756-0.756v0-0.859c-0.004-0.028-0.006-0.061-0.006-0.094 0-0.418 0.339-0.756 0.756-0.756s0.756 0.339 0.756 0.756c0 0.033-0.002 0.066-0.006 0.097l0-0.004v0.859c0 0 0 0 0 0 0 0.414-0.332 0.75-0.745 0.756h-0.001zM12.273 23.248c-0.418 0-0.756-0.339-0.756-0.756v0-0.548c0-0.418 0.339-0.756 0.756-0.756s0.756 0.339 0.756 0.756v0 0.548c0 0.418-0.339 0.756-0.756 0.756v0zM23.92 31.353c-3.623 0-6.575-4.255-6.575-9.472v-0.207c0.063-1.666 1.428-2.992 3.103-2.992 0.001 0 0.002 0 0.003 0h6.998c0.001 0 0.002 0 0.002 0 1.672 0 3.035 1.321 3.103 2.976l0 0.006v0.217c-0.051 5.217-3.043 9.472-6.636 9.472zM20.421 20.193c-0.003-0-0.008-0-0.012-0-0.839 0-1.523 0.666-1.552 1.499l-0 0.003v0.187c0 4.389 2.268 7.961 5.063 7.961s5.073-3.571 5.073-7.961v-0.186c-0.035-0.836-0.721-1.501-1.562-1.501-0.004 0-0.008 0-0.012 0h-6.996z"></path>
<path d="M25.111 26.923h-2.371c-0.010 0-0.021 0-0.032 0-0.777 0-1.407-0.63-1.407-1.407 0-0 0-0.001 0-0.001v0-2.371c0-0.778 0.63-1.408 1.408-1.408v0h2.371c0.773 0.006 1.398 0.634 1.398 1.408 0 0 0 0 0 0v0 2.371c0 0 0 0 0 0.001 0 0.763-0.607 1.385-1.365 1.407l-0.002 0zM22.833 25.422h2.175v-2.175h-2.175v2.175z"></path>
<path d="M23.92 27.793c-0.417-0-0.756-0.339-0.756-0.756v0-0.858c0.018-0.403 0.35-0.723 0.756-0.723s0.737 0.32 0.756 0.722l0 0.002v0.858c0 0.417-0.338 0.756-0.756 0.756h-0zM23.92 23.248c-0.417-0-0.756-0.339-0.756-0.756v0-0.548c0.018-0.403 0.35-0.723 0.756-0.723s0.737 0.32 0.756 0.722l0 0.002v0.548c0 0.417-0.338 0.756-0.756 0.756h-0zM35.567 31.353c-3.623 0-6.574-4.255-6.574-9.472v-0.218c0.069-1.661 1.432-2.981 3.103-2.981 0.001 0 0.002 0 0.003 0h6.998c0.001 0 0.002 0 0.002 0 1.672 0 3.035 1.321 3.103 2.976l0 0.006v0.217c-0.051 5.217-3.001 9.472-6.636 9.472zM32.068 20.193c-0.004-0-0.008-0-0.012-0-0.839 0-1.523 0.666-1.552 1.499l-0 0.003v0.187c0 4.389 2.268 7.961 5.063 7.961s5.073-3.571 5.073-7.961v-0.186c-0.035-0.836-0.721-1.501-1.562-1.501-0.004 0-0.008 0-0.011 0h-6.998z"></path>
<path d="M36.757 26.923h-2.371c-0.777-0-1.407-0.631-1.407-1.408v0-2.371c0-0.778 0.63-1.408 1.408-1.408v0h2.371c0.777 0 1.407 0.631 1.407 1.408v0 2.371c0 0.778-0.63 1.408-1.408 1.408v0zM34.48 25.422h2.174v-2.175h-2.175v2.175z"></path>
<path d="M35.567 27.793c-0.417-0-0.756-0.339-0.756-0.756v0-0.858c0-0.417 0.338-0.756 0.756-0.756s0.756 0.338 0.756 0.756v0 0.858c0 0.417-0.338 0.756-0.756 0.756h-0zM35.567 23.248c-0.417-0-0.756-0.339-0.756-0.756v0-0.548c0-0.417 0.338-0.756 0.756-0.756s0.756 0.338 0.756 0.756v0 0.548c0 0.417-0.338 0.756-0.756 0.756h-0z"></path>
<path d="M1.258 28.786c-0.414-0.012-0.746-0.35-0.746-0.766 0-0.004 0-0.007 0-0.011v0.001c0-0.683 0-2.516 9.836-3.706 0.028-0.004 0.060-0.006 0.093-0.006 0.412 0 0.746 0.334 0.746 0.746 0 0.006-0 0.011-0 0.017v-0.001 0.362h2.174v-0.725c0-0.001 0-0.002 0-0.003 0-0.396 0.304-0.72 0.691-0.753l0.003-0c2.516-0.196 5.176-0.311 8.012-0.352 0.008-0 0.017-0 0.026-0 0.205 0 0.39 0.084 0.523 0.219l0 0c0.138 0.145 0.216 0.337 0.217 0.538v1.035h2.175v-1.036c0.001-0.211 0.087-0.401 0.227-0.538l0-0c0.132-0.134 0.316-0.218 0.519-0.218 0.007 0 0.014 0 0.021 0l-0.001-0c2.806 0 5.508 0.156 8.013 0.352 0.39 0.033 0.694 0.358 0.694 0.753 0 0.001 0 0.002 0 0.003v-0 0.724h2.175v-0.362c0.003-0.421 0.345-0.761 0.766-0.761 0.029 0 0.058 0.002 0.086 0.005l-0.003-0c9.835 1.191 9.835 3.023 9.835 3.706-0.013 0.407-0.347 0.733-0.756 0.733s-0.743-0.325-0.756-0.732l-0-0.001c-0.135-0.3-1.801-1.325-7.713-2.070-0.169 0.601-0.712 1.034-1.356 1.035h-2.371c-0.778 0-1.408-0.63-1.408-1.408v0-0.124c-2.071-0.145-4.214-0.239-6.46-0.28v0.404c0 0.777-0.63 1.408-1.407 1.408h-2.371c-0.010 0-0.021 0-0.032 0-0.778 0-1.408-0.63-1.408-1.408 0-0.018 0-0.037 0.001-0.055l-0 0.003v-0.373c-2.247 0-4.41 0.135-6.46 0.28v0.124c0 0 0 0 0 0.001 0 0.777-0.63 1.408-1.407 1.408h-2.34c-0.645-0-1.188-0.434-1.354-1.026l-0.002-0.010c-5.911 0.777-7.588 1.801-7.724 2.143-0.006 0.401-0.332 0.725-0.734 0.725-0.007 0-0.015-0-0.022-0l0.001 0z"></path>
</symbol>
<symbol id="icon-phone" viewBox="0 0 32 32">
<path d="M29.945 31.808c-15.744 0.020-27.692-12.071-27.68-27.678 0-1.019 0.827-1.849 1.846-1.849h4.874c0.923 0.001 1.687 0.68 1.823 1.565l0.001 0.010c0.322 2.166 0.953 4.278 1.876 6.267l0.19 0.411c0.076 0.161 0.121 0.349 0.121 0.548 0 0.436-0.214 0.822-0.543 1.059l-0.004 0.003c-1.509 1.076-2.085 3.244-0.911 4.935 1.503 2.145 3.313 3.954 5.388 5.411l0.070 0.046c1.691 1.174 3.86 0.598 4.938-0.911 0.24-0.333 0.626-0.547 1.062-0.547 0.199 0 0.387 0.044 0.556 0.124l-0.008-0.003 0.406 0.19c1.818 0.865 3.928 1.519 6.142 1.857l0.127 0.016c0.896 0.137 1.575 0.902 1.575 1.826 0 0 0 0 0 0v0 4.871c0 1.020-0.827 1.846-1.846 1.846v0h-0.002z"></path>
</symbol>
<symbol id="icon-calendar" viewBox="0 0 27 32">
<path d="M24.381 31.89h-21.333c-1.683 0-3.048-1.364-3.048-3.048v0-21.333c0-1.683 1.364-3.048 3.048-3.048v0h3.048v-3.048h3.048v3.048h9.143v-3.048h3.048v3.048h3.048c1.683 0 3.048 1.364 3.048 3.048v0 21.333c0 1.683-1.364 3.048-3.048 3.048v0zM3.048 13.605v15.238h21.333v-15.238h-21.333zM3.048 7.509v3.048h21.333v-3.048h-21.333zM21.333 25.795h-3.048v-3.048h3.048v3.048zM15.238 25.795h-3.048v-3.048h3.048v3.048zM9.143 25.795h-3.048v-3.048h3.048v3.048zM21.333 19.7h-3.048v-3.048h3.048v3.048zM15.238 19.7h-3.048v-3.048h3.048v3.048zM9.143 19.7h-3.048v-3.048h3.048v3.048z"></path>
</symbol>
<symbol id="icon-location" viewBox="0 0 25 32">
<path d="M13.208 31.877c-2.143-1.835-4.072-3.779-5.833-5.87l-0.062-0.076c-2.695-3.22-5.895-8.013-5.895-12.581 0-0.001 0-0.003 0-0.004 0-6.511 5.278-11.789 11.789-11.789 3.257 0 6.206 1.321 8.34 3.457l0 0c2.131 2.122 3.449 5.057 3.449 8.301 0 0.013-0 0.025-0 0.038v-0.002c0 4.569-3.2 9.363-5.895 12.581-1.823 2.166-3.751 4.111-5.827 5.888l-0.068 0.057zM13.208 4.93c-4.649 0.006-8.415 3.773-8.421 8.421v0.001c0 1.965 0.888 5.366 5.112 10.42 1.079 1.284 2.161 2.444 3.298 3.547l0.012 0.011c1.149-1.114 2.231-2.273 3.253-3.483l0.058-0.070c4.222-5.063 5.11-8.461 5.11-10.425-0.006-4.649-3.773-8.415-8.421-8.421h-0.001zM13.208 18.403c-2.79 0-5.053-2.262-5.053-5.053s2.262-5.053 5.053-5.053v0c2.79 0 5.053 2.262 5.053 5.053s-2.262 5.053-5.053 5.053v0z"></path>
</symbol>
<symbol id="icon-linkedin" viewBox="0 0 32 32">
<path d="M28.48 31.73h-25.27c-1.546-0.001-2.798-1.254-2.798-2.8v0-25.266c0.002-1.545 1.255-2.796 2.8-2.796 0 0 0 0 0 0h25.266c1.544 0 2.796 1.252 2.8 2.796v25.27c-0.001 1.546-1.254 2.799-2.8 2.8h-0zM6.7 12.3l-0.666 2.454h2.194l-1.418 5.778c-0.104 0.456-0.16 0.922-0.172 1.39-0.009 0.079-0.014 0.17-0.014 0.262 0 1.369 1.109 2.478 2.478 2.478 0.112 0 0.222-0.007 0.331-0.022l-0.013 0.001c1.637-0.073 3.035-1.028 3.736-2.399l0.012-0.025-0.562 2.232h3.108l1.772-7.108c0.446-1.82 1.326-2.746 2.608-2.746 0.035-0.003 0.075-0.004 0.116-0.004 0.859 0 1.556 0.697 1.556 1.556 0 0.049-0.002 0.097-0.007 0.144l0-0.006c0.004 0.338-0.044 0.674-0.146 0.996l-0.906 3.272c-0.124 0.415-0.196 0.892-0.196 1.385 0 0.003 0 0.006 0 0.009v-0c-0.003 0.049-0.005 0.106-0.005 0.164 0 1.403 1.137 2.54 2.54 2.54 0.105 0 0.209-0.006 0.312-0.019l-0.012 0.001c1.768 0 3-1.2 3.668-3.57l-1.214-0.47c-0.474 1.354-0.98 2.014-1.544 2.014-0.414 0-0.632-0.288-0.632-0.832 0.012-0.284 0.054-0.568 0.128-0.844l0.892-3.188c0.204-0.656 0.308-1.34 0.31-2.026 0.013-0.108 0.020-0.233 0.020-0.36 0-1.781-1.428-3.228-3.201-3.259l-0.003-0c-1.8 0.244-3.352 1.38-4.128 3.022l0.618-2.776h-4.784l-0.67 2.404h2.22l-1.372 5.47c-0.482 1.324-1.685 2.272-3.123 2.373l-0.011 0.001c-0.005 0-0.010 0-0.015 0-0.051 0-0.101-0.004-0.15-0.013l0.005 0.001c-0.416-0.098-0.658-0.258-0.658-0.776 0.010-0.428 0.074-0.854 0.19-1.266l2.086-8.238h-5.276zM10.726 6.874c-1.033 0-1.87 0.837-1.87 1.87s0.837 1.87 1.87 1.87v0-0.040c0.004 0 0.009 0 0.014 0 0.516 0 0.984-0.206 1.326-0.54l-0 0c0.336-0.332 0.544-0.793 0.544-1.302 0-0.005-0-0.010-0-0.015v0.001c-0.014-1.021-0.845-1.844-1.868-1.844-0.006 0-0.011 0-0.017 0h0.001z"></path>
</symbol>
<symbol id="icon-instagram" viewBox="0 0 34 32">
<path d="M17.222 31.814c-4.22 0-4.72-0.022-6.366-0.096-1.36-0.046-2.643-0.325-3.826-0.799l0.076 0.027c-2.077-0.823-3.691-2.437-4.495-4.46l-0.019-0.054c-0.431-1.112-0.692-2.398-0.72-3.742l-0-0.012c-0.092-1.644-0.092-2.182-0.092-6.372 0-4.234 0.020-4.728 0.096-6.368 0.024-1.28 0.268-2.548 0.72-3.748 0.821-2.079 2.436-3.694 4.46-4.497l0.053-0.019c1.111-0.432 2.396-0.694 3.739-0.72l0.011-0c1.64-0.094 2.178-0.094 6.36-0.094 4.256 0 4.746 0.022 6.368 0.094 1.357 0.026 2.646 0.288 3.837 0.746l-0.077-0.026c2.079 0.823 3.693 2.437 4.497 4.462l0.019 0.054c0.46 1.218 0.704 2.506 0.724 3.806 0.096 1.644 0.096 2.18 0.096 6.368s-0.024 4.736-0.096 6.362c-0.028 1.356-0.289 2.643-0.746 3.834l0.026-0.078c-0.825 2.079-2.441 3.694-4.466 4.499l-0.054 0.019c-1.202 0.45-2.472 0.692-3.754 0.72-1.64 0.094-2.176 0.094-6.374 0.094zM17.164 3.578c-4.198 0-4.634 0.020-6.272 0.094-0.98 0.012-1.948 0.192-2.864 0.534-1.359 0.53-2.415 1.582-2.938 2.903l-0.012 0.035c-0.328 0.859-0.523 1.852-0.534 2.889l-0 0.005c-0.092 1.664-0.092 2.1-0.092 6.268 0 4.12 0.016 4.62 0.092 6.27 0.016 0.98 0.196 1.948 0.534 2.866 0.536 1.356 1.592 2.408 2.915 2.926l0.035 0.012c0.916 0.34 1.886 0.522 2.864 0.532 1.66 0.098 2.1 0.098 6.272 0.098 4.21 0 4.646-0.020 6.272-0.098 1.032-0.012 2.016-0.206 2.925-0.552l-0.059 0.020c1.35-0.535 2.399-1.584 2.922-2.899l0.012-0.035c0.342-0.928 0.522-1.908 0.534-2.896h0.020c0.072-1.64 0.072-2.080 0.072-6.272s-0.020-4.634-0.092-6.272c-0.017-1.032-0.211-2.013-0.554-2.922l0.020 0.060c-0.533-1.353-1.583-2.404-2.899-2.928l-0.035-0.012c-0.85-0.326-1.834-0.52-2.861-0.532l-0.005-0c-1.66-0.094-2.094-0.094-6.272-0.094zM17.224 24.232c-0.039 0.001-0.085 0.001-0.132 0.001-4.382 0-7.934-3.552-7.934-7.934s3.552-7.934 7.934-7.934c0.042 0 0.084 0 0.126 0.001l-0.006-0c4.33 0.068 7.813 3.594 7.813 7.933 0 4.336-3.478 7.859-7.796 7.933l-0.007 0zM17.224 11.146c-2.843 0-5.148 2.305-5.148 5.148s2.305 5.148 5.148 5.148c2.843 0 5.148-2.305 5.148-5.148v0c-0.007-2.842-2.31-5.143-5.152-5.148h-0zM25.46 9.922c-1.019-0.004-1.843-0.831-1.843-1.85 0-1.022 0.828-1.85 1.85-1.85 0.002 0 0.005 0 0.007 0h-0c1.019 0.004 1.843 0.831 1.843 1.85 0 1.022-0.828 1.85-1.85 1.85-0.002 0-0.005 0-0.007 0h0z"></path>
</symbol>
<symbol id="icon-google" viewBox="0 0 32 32">
<path d="M16.52 13.476v5.922h8.222c-0.764 3.764-3.968 5.926-8.224 5.926-5.004 0-9.060-4.056-9.060-9.060s4.056-9.060 9.060-9.060v0c0.004 0 0.008 0 0.012 0 2.146 0 4.115 0.763 5.649 2.032l-0.015-0.012 4.462-4.46c-2.685-2.371-6.234-3.818-10.121-3.818-8.463 0-15.324 6.861-15.324 15.324s6.861 15.324 15.324 15.324c0.005 0 0.011 0 0.016 0h-0.001c7.666 0 14.638-5.576 14.638-15.334-0.013-0.995-0.138-1.955-0.362-2.876l0.018 0.088-14.294 0.002z"></path>
</symbol>
<symbol id="icon-close" viewBox="0 0 24 32">
<path d="M21.413 9.412c0.781-0.781 0.781-2.050 0-2.831s-2.050-0.781-2.831 0l-6.581 6.587-6.588-6.581c-0.781-0.781-2.050-0.781-2.831 0s-0.781 2.050 0 2.831l6.587 6.581-6.581 6.587c-0.781 0.781-0.781 2.050 0 2.831s2.050 0.781 2.831 0l6.581-6.588 6.587 6.581c0.781 0.781 2.050 0.781 2.831 0s0.781-2.050 0-2.831l-6.588-6.581 6.581-6.588z"></path>
</symbol>
<symbol id="icon-left" viewBox="0 0 32 32">
<path d="M20.106 4.8l-10.936 10.936 10.936 10.936 1.824-1.823-9.115-9.114 9.115-9.114-1.824-1.822z"></path>
</symbol>
<symbol id="icon-right" viewBox="0 0 32 32">
<path d="M11.156 26.672l10.936-10.936-10.936-10.936-1.824 1.822 9.115 9.114-9.115 9.114 1.824 1.823z"></path>
</symbol>
<symbol id="icon-compass" viewBox="0 0 32 32">
<path d="M17 32c-0.072 0-0.144-0.008-0.217-0.024-0.458-0.102-0.783-0.507-0.783-0.976v-15h-15c-0.469 0-0.875-0.326-0.976-0.783s0.129-0.925 0.553-1.123l30-14c0.381-0.178 0.833-0.098 1.13 0.199s0.377 0.749 0.199 1.13l-14 30c-0.167 0.358-0.524 0.577-0.906 0.577zM5.508 14h11.492c0.552 0 1 0.448 1 1v11.492l10.931-23.423-23.423 10.931z"></path>
</symbol>
<symbol id="icon-pencil" viewBox="0 0 32 32">
<path d="M27 0c2.761 0 5 2.239 5 5 0 1.126-0.372 2.164-1 3l-2 2-7-7 2-2c0.836-0.628 1.874-1 3-1zM2 23l-2 9 9-2 18.5-18.5-7-7-18.5 18.5zM22.362 11.362l-14 14-1.724-1.724 14-14 1.724 1.724z"></path>
</symbol>
<symbol id="icon-user" viewBox="0 0 32 32">
<path d="M18 22.082v-1.649c2.203-1.241 4-4.337 4-7.432 0-4.971 0-9-6-9s-6 4.029-6 9c0 3.096 1.797 6.191 4 7.432v1.649c-6.784 0.555-12 3.888-12 7.918h28c0-4.030-5.216-7.364-12-7.918z"></path>
</symbol>
<symbol id="icon-mobile" viewBox="0 0 32 32">
<path d="M23 0h-14c-1.65 0-3 1.35-3 3v26c0 1.65 1.35 3 3 3h14c1.65 0 3-1.35 3-3v-26c0-1.65-1.35-3-3-3zM12 1.5h8v1h-8v-1zM16 30c-1.105 0-2-0.895-2-2s0.895-2 2-2 2 0.895 2 2-0.895 2-2 2zM24 24h-16v-20h16v20z"></path>
</symbol>
<symbol id="icon-mail" viewBox="0 0 32 32">
<path d="M26.667 0h-21.333c-2.934 0-5.334 2.4-5.334 5.334v21.332c0 2.936 2.4 5.334 5.334 5.334h21.333c2.934 0 5.333-2.398 5.333-5.334v-21.332c0-2.934-2.399-5.334-5.333-5.334zM26.667 4c0.25 0 0.486 0.073 0.688 0.198l-11.355 9.388-11.355-9.387c0.202-0.125 0.439-0.198 0.689-0.198h21.333zM5.334 28c-0.060 0-0.119-0.005-0.178-0.013l7.051-9.78-0.914-0.914-7.293 7.293v-19.098l12 14.512 12-14.512v19.098l-7.293-7.293-0.914 0.914 7.051 9.78c-0.058 0.008-0.117 0.013-0.177 0.013h-21.333z"></path>
</symbol>
<symbol id="icon-unchecked" viewBox="0 0 32 32">
<path d="M28 0h-24c-2.2 0-4 1.8-4 4v24c0 2.2 1.8 4 4 4h24c2.2 0 4-1.8 4-4v-24c0-2.2-1.8-4-4-4zM28 28h-24v-24h24v24z"></path>
</symbol>
<symbol id="icon-checked" viewBox="0 0 32 32">
<path d="M28 0h-24c-2.2 0-4 1.8-4 4v24c0 2.2 1.8 4 4 4h24c2.2 0 4-1.8 4-4v-24c0-2.2-1.8-4-4-4zM14 24.828l-7.414-7.414 2.828-2.828 4.586 4.586 9.586-9.586 2.828 2.828-12.414 12.414z"></path>
</symbol>
</defs>
</svg>
